<svg version="1.1" viewBox="0 0 45.069 127.47" xml:space="preserve" xmlns="http://www.w3.org/2000/svg" xmlns:xlink="http://www.w3.org/1999/xlink"><g transform="translate(-78.576 -79.591)" display="none" fill="#13090b"><rect x="1.6371" y="-.47338" width="208.68" height="293.66" fill="#f00" stroke="#1a1a1a" stroke-opacity=".86667" stroke-width=".13229"/></g><g transform="translate(-78.576 -79.591)" fill="#060606"><path d="m102.76 98.947-3.9718 0.11834 0.03927 1.1007-0.43253 0.47232 0.03927 1.927-4.6013 0.35399-0.62942 1.219-0.31471-0.94413-0.82579-0.55035-2.9099 1.219-1.1803 2.3988 0.35398 2.3601 0.86558 0.43253v0.31471l-0.35398 0.0393-1.1012 2.4381-0.78652 2.635-0.15761 4.4044-0.78652 0.62942 0.03927 2.0448 0.62942 0.94413 1.0547 0.57774c-0.03141 0.13763-0.02919 0.27181-0.0016 0.39481l-0.38447 0.12867-1.2981 0.6289-1.4945 1.6521-2.6345 7.1572-0.03979 1.1803 0.66869 0.51108-0.6289 0.0393-0.70797 2.0056-0.62942 0.11782 0.07855 2.8712-0.39326 0.15709 0.07855 0.59015 1.2981 0.39326 0.11782 0.58962-1.573 0.47233-0.62942 0.70796-0.19637 1.1798-0.74724 1.7301 0.62942 0.23616-0.62942 0.82579-0.03927 0.78652 0.51108 1.062 0.47181 0.35398-0.19637 0.39326 0.39326 0.86506 0.82579 0.47181 0.35398-0.35398-0.35398-0.62891 0.74724 0.78652 0.55035 0.47181 0.74724-0.0393 0.03979-0.70797-0.47232-0.74724-0.31471-0.74724-0.47181-0.11782 0.35398-0.11782 0.07855-2.5172 0.39326-0.59015 0.35398 0.6687 0.55087 0.94412 0.58963 0.0785-0.19637-3.2644-0.5116-0.27492-0.1571-0.51159 0.82579-0.1571v-0.94413l-0.74724-0.0393v-0.35398l0.27544-0.55036 0.86506 0.0785 0.78652-0.27492 1.8092-4.4049-0.19637-0.74724 0.47181 0.0786 0.27544-0.47181 0.07855-0.62942 3.0282-6.0958 0.35398-1.927-0.6811-1.8991c0.42254-0.12443 0.87668-0.83004 0.87282-1.2635-0.02675-0.25119-0.17552-0.76181-0.32711-1.095l0.72502-0.18604 0.35398-0.66869-0.11782-1.062 0.99632-2.5063 0.47232 2.5642 1.5989 1.9084 0.07855 0.94412-0.70797 0.82579 0.1571 3.5 1.2196 0.55087 0.11782 0.94361-1.4159 0.23616-1.0222 1.1405-0.19689 1.0614-1.2583 0.59015-0.94413 1.2976-0.6289 1.6521v0.86506l1.4547 0.74725v0.43253l-0.66818 0.11782-1.4945 1.1798-0.5116 1.6128-0.07855 1.3369-1.1405 0.0786-0.07855 0.78703 0.43253 0.23565v0.70796l-1.4945 0.94362-1.1798 2.2417-1.0222 3.9724v4.0897l0.47181 0.0393 0.03927 0.5116-0.51108 0.1571-0.03979 0.59014 0.27544 7.1179 0.62942 3.6577 1.1012-0.0785 0.6289 2.1632 0.5116 0.0786 0.03927 0.4718-0.43253 0.39326-0.74724 1.6516 0.39326 1.6521 1.4945 0.98288 0.11782 0.55087-1.1405 0.78652-0.47181 0.82579 0.03927 2.3203-0.90485 0.0393 0.19689 0.82579 1.1798 0.0393 0.1571 0.62941-0.6289 0.51108-0.23616 2.5172 0.11834 2.6743 1.1798 5.4271 0.31419 5.3878-0.6289 0.94413-0.23616 1.062 0.5116 0.43253-0.94413 1.4547-1.8485 1.4552-1.1798 1.1798-1.8485 1.0227 0.03927 1.2976 0.90485 0.51159 3.5786 0.0393 2.0846-1.4552 4.0897-0.35398 0.15761-2.7135 0.27492-0.74724-0.31419-2.6743-0.82631-0.90434 0.59014-4.3264 1.9663-6.2136 0.9834-4.0111-0.23616-2.9104-0.74724-1.062-0.03927-1.0227 0.27544-0.94361-0.43253-1.4159-0.90486-0.6289-0.58963 0.23565-0.47232-1.1012 0.15761-0.4718 0.51108-0.51108 0.35398-0.6687-0.39326-0.74724 0.11782-0.78651-0.19637-0.94362-0.43305-0.21652c0.29214-0.19266 0.77491-0.9864 0.55087-1.357-0.11467-0.30365 0.0022-0.93815-0.077-1.2754l0.94206-0.14004 0.07906-0.74724 0.23564-0.15761 0.15761-1.0222 0.19637-1.2588 0.11834-1.1798-0.31471-0.35398 0.07855-0.27492 0.39326-0.11834 0.1571-1.4154-0.39326-0.15762 0.07906-0.51108 0.43253-0.23616 0.90434-9.7136-0.59014-1.6123 0.19689-0.90486-0.74724-2.0448-0.11782-0.5116 0.35398-0.0786 2.1234 2.5172 1.7306 0.0786 0.07855-0.39326 0.27544 0.0393 0.1571 0.35398 1.1798-0.0393 0.9834-0.86507 0.27492-0.66869 1.2196 2.5957 0.74724-0.15762-0.23616 3.7362 1.2583 4.4834 3.854 11.287 1.6128 0.23616 0.55035 1.1012-0.11782 0.78652 0.35399 0.47232-0.0393 1.0222-0.9834 0.74724-0.0393 1.6123 1.0227 1.2196 0.51108 0.11782 0.39326 0.51108-1.0227 0.23616-0.19637 1.927 0.23565 0.15709 0.23616 2.8712 0.74724 0.43253 0.31471 0.39326-0.43253 0.11782-0.62942 1.5338 0.51108 3.8938 0.94413 1.6516 1.4552 3.2639 1.2583 5.3883 0.4718 1.1798 0.19689 0.58963-0.11834 1.8092-0.51108 0.78652-0.55035 0.59014 0.0393 2.1234 1.0222 0.86507 0.19689 1.7699 3.3822 0.66869 3.8148-0.59015 0.43254-0.94361-0.6687-0.90485-0.27543-0.58963-0.47181-1.4159-1.7699-1.9663-0.58962-1.4945 0.27543-0.74725-0.39326-1.1798-1.0227-0.70797 0.43253-0.43253-0.0393-6.8823 0.86507-3.6577 0.0393-3.4608-0.31419-0.66818-0.0791-1.2196-0.51108-0.90434-1.3369-0.39326-0.19689-1.0227 0.39326-1.0222-0.82579-2.3601-0.78652-0.0393 0.62942-3.6179-2.4386-1.4159 0.55087-0.55036 0.11782-0.35398-1.1798-0.11782 0.19637-1.6521 1.1798-0.0786 0.27544-1.3767-0.74724-10.304-1.0108-3.1182 1.3255-1.326 1.1012-0.23565 1.2976-2.1632 0.19688-2.0056 0.47181-0.27543v-0.35399l-0.19637-0.35398 0.0393-0.90434-0.15761-1.8092-1.3761-0.39326-0.0393-0.6289 0.98289-1.062-0.43253-0.35398-0.11783-4.208-0.23616-0.86507-0.35398-0.27543 0.0393-0.94413 0.39326-0.0786 0.0393-7.7473-1.1405-1.927-1.6123-0.27544v-1.2583l1.2583-0.31471-0.0786-1.3767-0.35398-0.19637 0.19689-0.82579-0.86507-0.43305 0.0393-0.27492 1.1007-0.35398-0.0393-0.62942-0.74724-0.0393-0.6289-4.4044-1.927-5.3883 0.82578 0.23616 0.62219-0.86144-0.55604-0.66766 0.66714-2.5585-2.113-2.002-3.6432 0.20257-0.97462 0.10594-0.53124 1.0227-0.23564-0.98341-2.635-0.23616-0.0786-2.1234-0.66869-0.62942zm5.4782 14.03 0.61753 7.4828 0.23617 0.0393v0.98289l0.78651 0.70797 0.23565-0.23565-0.43254-0.78651-0.0393-0.55087 0.5116-0.11783v0.82579l0.94361 0.6687v0.4718l1.573 0.35399 0.19689 0.74724-0.55087 0.23564-0.82579 1.0227-0.0393 2.3988 1.2976 6.9613 0.43305-0.0393 0.11782 0.6289-0.66869 0.11834v1.3369l1.4159 2.7921-0.0393 0.70796-0.43254 0.23616 0.11783 0.47181 1.6908 1.1405 0.11834 0.51108-0.70797-0.0786-1.8877 2.0056 0.47181 4.3264 0.51108-0.51159 0.47232-1.9663 0.23564 0.90485-0.39325 2.2412-0.39326 0.62942-0.39533 0.61081-0.31264-0.9648-0.86506-4.3651-1.1405-1.4552-1.1798-0.35399-0.0786-0.27543 0.55035-0.35347-0.86506-2.7533h-0.74724l-0.0785-0.74724 0.31419-0.19637-1.0614-1.6123-1.573-0.11834-0.0791-0.3142 1.9663-0.0791 0.23616-1.1798-0.62942-0.39326 0.0393-1.3761-2.4774-2.5172-3.5-2.3203-0.15761-0.78651 1.062-0.5116 0.55087-0.43253 0.0785-2.635-0.86506-1.3369-0.78652-0.19689-0.0393-0.6289 4.5961-2.3668 1.0278-3.3579-0.0791-3.4386 0.90434-0.15762zm-18.038 9.3317c-5.65e-4 0.0164-0.0012 0.0331-0.0016 0.0507 0.32942 0.69649 0.13688 1.4762-0.46457 1.9141l-0.9064-0.52451c0.11596-0.3204 0.20151-0.61346 0.19792-0.82528l0.71675-0.49764zm2.0061 44.231c0.14175 0.75767 0.40715 1.5278-0.08372 2.221-0.01983 0.0954-0.0273 0.16985-0.02532 0.22634l-0.38861-0.1943v-0.58963l-0.82579-0.66869-0.07855-0.78652z"/><path d="m103.64 99.108-5.6771 0.19936-0.4908-1.0171-2.0131-0.90602 0.26769-4.1692-0.45534-12.456 0.4782-0.94526 7.3524-0.22241 2.2117 0.77845 1.1955 13.79-0.11955 3.2806-0.71731 0.38922-1.5542 0.16681z"/></g><g transform="translate(-78.576 -79.591)"><path d="m101.89 85.147-5.5335 0.11731 0.13022 1.7239 5.4467-0.09767zm0.0558 2.6153-5.4322 0.09819 0.06615 1.7033 5.4322-0.09767z" fill="#f00"/><path d="m99.221 100.72-0.55656 0.11111 0.16692 1.1679zm10.484 1.974-2.4748 0.0837-0.22273 0.72295 2.5027 0.1111zm-17.658 0.19482-2.4474 1.279 1.4464 1.1684 1.4459-0.11162 0.33383-1.7239zm10.567 0.0558-1.2237 0.33331 0.66766 0.88987 0.33332 0.83458 1.0568 0.66714 1.0568-0.27802 1.2795-1.1679 0.1664-1.2237zm-4.5604 0.38912-4.0049 0.11111-2.2247 6.8409 0.05581 1.3906 2.1136 0.22221 1.001-0.94517 0.61185 0.77825 4.1713-0.1664 1.279-1.3906v-2.8365l-0.94516-1.1121-1.5575 2.0578-3.1703-0.11162 0.55656-2.6138 1.4459-0.27802zm13.07 3.6706-0.50074 0.44494 0.16691 0.66766 0.72295-0.72296zm-18.855 10.79-1.4459 2.2247h0.55604zm21.858 6.2844-1.5012 0.11162-0.55656 1.279 1.0015-0.83405 1.0563-0.0558 1.0568 1.0568-0.16691-1.1679zm-27.364 0.83458-0.61133 0.0553-1.1684 1.0568-2.836 7.1748 0.38912 0.66766 0.77876-0.16692 1.6681-5.2839 1.2237 0.11162 0.94568-0.83457-0.83457-0.38913-0.38912-0.72295zm10.234 0.33383 0.16692 0.38912 0.1111 0.66714 0.61185-0.27802 0.16691-0.50022 0.50023-0.22273zm15.406 0.94516 1.1126 2.1136 0.88987-0.0558 1.1679-1.5012-1.1126 0.50023-1.001 0.16692zm-21.969 0.1111-1.0568 2.3363-2.8923 5.84h0.61185l2.2247-4.2271 0.88987-1.7239zm-4.116 2.6143-2.0578 4.3935 0.22273 0.11162 2.2247-4.394zm8.0646 0.38913-1.279 1.3906-0.27802 3.7822 0.94516-2.9481 1.0568-1.3348 3.8375-0.1111-3.8928-0.33383zm-2.0578 2.7812-0.61185 0.1664-0.83406 1.1126-0.55604 1.8908 0.50023 0.33383 0.44493-2.1689 0.94568-1.0015zm-10.4 2.7249-0.61185 2.1136 0.50074 0.16691 0.61185-1.5017 0.83406-0.55603zm4.0602 1.0568-1.5575 3.7822 0.38964 0.77825 1.6681-4.2266zm13.682 1.2795-3.5042 0.22221-1.279 0.61185 1.557-0.27802 3.1703 0.1111 1.6128 0.22273-0.11111-0.44493zm-8.4537 0.94516-1.0015 0.61185 0.61185 0.88987 1.6128-0.0553 0.44494-0.83458zm11.29 1.5017-0.80667 1.3627 0.66766 2.5864 0.38912-1.6965-0.55604-0.25012 0.16692-0.38964 0.55604-1.3069zm-7.4249 0.61185-0.75086 0.13901 0.1943 1.3906 0.38964-0.0558zm-14.322 2.0578-0.44493 0.27801-0.22272 0.72296 0.66766-0.38913zm0.44493 1.001-0.55604 0.27853-0.05581 0.66715 0.72295-0.44494zm8.0088 0.66766-1.4459 1.7239-0.05581 1.1126 0.88987 0.44493-0.16692 4.8385 0.94568-4.6163 1.5017-2.1689-0.33383-1.1679zm-9.3994 0.66714-0.1111 1.0568 0.61185-0.50022-0.05581-0.44494zm22.247 0.58394 0.88987 2.2805 0.36122-0.1111zm-4.0323 0.0558 0.1111 0.44494 1.3069-0.0553 0.33383-0.38964zm8.231 0.36174-0.33331 0.38912 0.50023 0.25012 0.44493-0.38913 0.91778-0.19482zm-2.3079 0.61185 0.13901 3.0308 0.36174-1.9746 0.69505-0.72295zm1.5849 0.0553v1.1958l1.001 2.4753-0.50023-2.1136v-1.5296zm-11.012 1.2795-0.30592 0.44493 0.72295 1.0289 0.25063 2.5306 0.22221-0.88987 0.05581-1.6407zm-12.931 1.3901-0.38912 0.22272 0.77876 0.83406zm6.2709 4.8529-1.3488 0.48628 0.63975 0.23667 0.18087 0.13901-0.38964 0.54209-0.04186 2.2386 0.31988 0.22273-0.01395 0.41703-0.36122 0.12505-0.08372 0.88987 0.40359 1.001 0.48628 0.27802 0.77876-0.84801 0.20877-1.1958-0.40308-0.23616-0.04186-0.52865 0.33383-0.15296 0.04134-2.1968-0.34726-0.16691 0.05529-0.34727 0.37569-0.11162 0.06925-0.54209zm24.374 5.7981-1.7518 0.30592-0.97359 0.36122 0.66766 0.27802h1.6965zm-25.086 1.5301-0.33435 0.37362 0.23616 0.4718 0.39326 0.17725 0.66869-0.43253 0.01964-0.45269zm3.6184 7.5628-0.52865 0.0837-0.13901 0.63975 0.75086 0.0553zm-1.3074 1.1405-1.7797 0.27802-0.33331 1.0289 0.44493 0.75086 0.72295 0.61184 0.94516-0.77876 0.22272-1.1958zm24.666 0.51418-1.4459 1.2795 0.55604 1.0428 0.79272 0.56999 1.4878-1.8356-0.38912-0.91777zm-26.223 5.3532-0.36174 0.63976 0.25063 0.47284 0.66714-0.52865-0.16692-0.50023zm24.332 0.38964-0.16692 1.1121 0.83458-0.66714zm-21.746 3.8375-0.1943 0.47284 0.88987 1.1121 1.1958-0.50023 0.44493-0.52865 1.6407-0.38912-2.7533-0.13901zm-1.4459 0.94568-0.72295 0.0553-0.61185 0.69504 2.0025-0.0832zm23.118 0.23461 0.1571 0.5116 0.90485-0.27543zm3.9718 0.31471-1.6516 0.0786 0.0786 1.0227 0.74724 0.0393 1.0227-0.43253zm-24.171 15.857-0.61133 0.0558-0.0279 0.66715 0.58394 0.0837 0.30592-0.33383zm-2.0851 0.83458-1.0847 0.50023-0.1111 1.0847-0.25063-0.58394-0.41703 0.27802 0.05581 0.94568-0.25063-0.41755-0.50023 0.55656-0.02791 0.41703 0.41703 0.33383 0.19482-0.58395 0.1943 0.25012 0.22272-0.0279 0.22221-0.63975 0.13953 0.94568 0.88987 0.0279 0.61133-1.2237zm-3.3094 3.3368-0.86196 0.33382-0.72347 0.94568 0.30592 0.33332 0.52865-0.52814 1.001-0.0558 0.25011-0.50022zm-2.7812 1.6686-0.47232 0.33383 0.33331 0.91725 0.27854-0.75034zm38.599 1.6407-1.6965 0.44494-1.5291 0.1111 0.0274 0.22273h2.2247l1.4464-0.52865z" fill="#00323c"/><path d="m103.11 79.839-1.0563 0.13901 0.88987 1.1126 0.38912 10.79 0.50075 0.38912 0.1111 0.77876-0.72295 0.05581-0.16691 3.8933 2.0019 0.16692 1.2795-0.33383 0.0553-2.6143-1.14-13.682zm8.3984 22.886-0.61185 1.8355h1.2237l-1.2237 0.50023 0.61185 1.5017 1.2237 0.27802 0.72295-2.3637zm-6.674 12.291-0.66766 1.9466 1.1684 0.44493-0.16692 0.44493-1.3348-0.50022-0.27854 1.279 0.83458 1.1679 1.3627-0.19431 0.63923-2.5864v-1.3069zm-3.5595 7.1195-1.3348 0.27802 0.16691 0.50022 1.557-0.0553zm0.58394 1.14 0.0832 0.97307-0.77824 0.11162s-0.056 2.3913-0.11163 2.6138l0.94568 0.22273-0.16691 0.55604 1.1958-0.83458 0.19482-2.2521-0.75086-1.2516zm14.428 2.375-0.35347 0.62942-0.0398 2.4774 0.15761 0.11833 0.0786 0.3142-0.19637 0.15761 0.31419 4.2473 0.47232-0.11783-0.0393-7.3546zm-15.391 4.0488-1.3627 0.27802 1.4459 4.6162 0.30592-0.11162 0.50075-1.9461 0.88986-1.1405 0.19482 0.50074-0.0279 0.41703 2.5027 0.0832 1.14 0.52865 1.1958 0.88987-2.2526-2.3358-2.7528-0.11162zm15.549 6.4518-0.0393 3.5786 0.55035 0.23616-0.11782-3.7755zm-9.8299 1.8908-0.55604 0.33331-0.11162 1.0015h1.1126l0.0558-0.55655zm9.4759 4.2442-0.43254 0.19637-0.23616 1.7699-0.87036 0.42107 0.74766 0.87088 0.0834 1.7363-0.51108 2.7135-0.62942 1.1012 1.0227-0.70797 0.94361-2.1632-0.33448 2.0454 0.25593-0.0791 1.3325-2.107 0.12273-1.8648-0.90434-0.55035 1.3761-0.0393-0.0785-0.35398-0.0785-2.714zm-2.2536 10.488-0.11783 1.4108-0.45992 1.1188-0.0785 1.0222 0.6289 5.1521 0.27543 0.27543 0.27544 0.74725-0.43305 0.19637 0.19689 3.5393 1.1405 0.0791 0.15709-1.6128-0.74724-9.3596-0.55035-0.31471 0.23616-0.31471zm-20.125 7.2368-0.16692 1.1679 0.83406-0.16691 0.05581-0.88987zm0.38912 2.28-0.55604 0.16691-0.33383 2.8923 0.55604-0.1111zm-2.0298 7.6476-0.52865 0.0279 0.41703 1.14zm23.194 0.0734 0.55035 1.062-0.11782 0.74724 0.55087 2.5172 0.58963-3.5zm-23.917 3.7362-0.69556 0.58394 0.88987 0.72347-0.05529 1.1121 1.1679-0.97307-0.50074-0.97358zm24.36 0.55656-0.36173 0.55603 0.44493 0.41703 0.12506 0.52865 0.6537-0.86248-0.51469-0.37517zm3.2536 5.2638-0.62942 0.55087-1.1012 0.19637 0.70797 0.47232 0.78652 0.51108 0.66869 0.27544 0.11782-1.1405zm0.78651 2.5957-1.2588 0.19689 0.90485 0.27492-0.39326 0.78703-0.43253 1.0614-0.47232 3.5791 0.55087 8.2977 0.4718-0.31419-0.11782-7.0006 0.86507-3.5393s-0.11783-3.107-0.11783-3.343zm-1.2035 16.918v0.66765l-0.66766 0.36122 0.22273 1.5296 0.33331 0.50022 1.3906-0.58394 1.1126 1.0568 0.38913 0.61185 0.25011-0.94516-1.0289-1.1405-0.77876-1.7518z" fill="#800021"/></g><g transform="translate(-78.576 -79.591)" opacity=".65538"><image x="4.5838" y="37.304" width="203.2" height="203.2" display="none" opacity="1" preserveAspectRatio="none" xlink:href="file:///Users/poppijanne/Pictures/Stable%20Diffusion/Cyperpunk/anime%20girl%2005.jpeg"/><image x="10.876" y="24.405" width="203.2" height="203.2" display="none" fill="#fffde8" opacity="1" preserveAspectRatio="none" xlink:href="file:///Users/poppijanne/Pictures/Stable%20Diffusion/Cyperpunk/anime%20girl%2003.jpeg"/><image x="37.939" y="75.759" width="135.47" height="135.47" display="none" preserveAspectRatio="none" xlink:href="file:///Users/poppijanne/Pictures/Stable%20Diffusion/Cyperpunk/anime%20cyborg%20girl%2003.jpeg"/></g></svg>
