<svg width="764.98" height="1031.8" version="1.1" viewBox="0 0 202.4 272.99" xml:space="preserve" xmlns="http://www.w3.org/2000/svg" xmlns:xlink="http://www.w3.org/1999/xlink"><g transform="translate(-15.582 -7.5397)" display="none" fill="#f00"><rect x="-16.018" y="-18.687" width="282.09" height="332.81" fill="#1a1a1a"/></g><g transform="translate(-15.582 -7.5397)" fill="none" stroke="#000"><g stroke-width="2.1167"><path d="m126.81 70.3 0.88987 29.811 8.8988 10.679 12.903 7.119 6.6741-2.2247 8.4538-5.7842 14.238-9.7886 13.793 1.3348 5.7842 7.564 1.3348 12.013-8.4538 7.564"/><path d="m126.81 46.274 9.7886 23.582 22.247 4.8943 20.467-18.687s8.4538-3.5595 10.234-4.0044c1.7798-0.44494 8.0089 0.44494 8.0089 0.44494l15.573 12.903 2.6696 11.568-3.5595 12.013"/><path d="m127.25 43.159 12.013 12.903 8.8988 3.5595 15.573-1.3348 5.7842-6.2291 6.2291-11.123 0.44494-10.679-3.5595-7.5639 0.44494-7.5639 6.6741-5.3393 6.2291 0.88988 3.1146 4.4494"/><path d="m123.25 80.089-8.0089 9.7886-0.88988 8.0089 2.6696 20.467s5.3393 11.123 6.6741 12.903c1.3348 1.7798 8.0089 6.2291 8.0089 6.2291l7.564 1.3348 8.0089-4.0044 7.564-4.4494 6.2291 2.2247 8.4538 7.5639 3.1146 10.234-3.1146 9.7886-8.4538 3.1146"/><path d="m127.7 73.415 8.0089 19.132 14.683 7.119 11.568-4.8943 10.679-8.8988 8.8988-4.8943h6.2291"/><path d="m127.7 35.15 10.679 8.0089 8.4538 4.4494 9.3437-3.1146 3.5595-6.2291-1.7798-12.013-7.119-6.2291v-8.4538l5.3393-3.1146"/><path d="m101 47.608-4.4494 11.123s-12.903 6.6741-15.128 6.2291c-2.2247-0.44494-14.683-8.4538-14.683-8.4538l-0.88988-16.018 5.3393-6.2291 4.0044-11.123-3.1146-4.4494"/><path d="m80.979 74.305-8.4538 4.8943-17.798-0.44494-12.903-9.7886v-9.3437l2.6696-7.5639 0.88988-7.119-5.3393-7.119-17.353 1.7798-4.8943 5.7842 1.3348 10.679"/><path d="m123.69 77.864-1.7798 14.683 0.44494 12.458 3.5595 8.8988 5.7842 7.119 7.564 3.5595 8.8988 2.2247 7.119-1.3348 8.0089-1.7798 8.4538-5.3393 6.2291-4.4494h4.0044l5.7842 3.5595"/><path d="m79.644 81.424-17.798 14.683-11.123 0.88988-9.7886-6.6741-13.348-0.88988-5.3393 3.5595-4.0044 9.7886 3.5595 8.8988 5.7842 1.7798 11.568-1.7798"/><path d="m126.81 70.3 0.88987 29.811 8.8988 10.679 12.903 7.119 6.6741-2.2247 8.4538-5.7842 14.238-9.7886 13.793 1.3348 5.7842 7.564 1.3348 12.013-8.4538 7.564"/><path d="m126.81 46.274 9.7886 23.582 22.247 4.8943 20.467-18.687s8.4538-3.5595 10.234-4.0044c1.7798-0.44494 8.0089 0.44494 8.0089 0.44494l15.573 12.903 2.6696 11.568-3.5595 12.013"/><path d="m127.25 43.159 12.013 12.903 8.8988 3.5595 15.573-1.3348 5.7842-6.2291 6.2291-11.123 0.44494-10.679-3.5595-7.5639 0.44494-7.5639 6.6741-5.3393 6.2291 0.88988 3.1146 4.4494"/><path d="m123.25 80.089-8.0089 9.7886-0.88988 8.0089 2.6696 20.467s5.3393 11.123 6.6741 12.903c1.3348 1.7798 8.0089 6.2291 8.0089 6.2291l7.564 1.3348 8.0089-4.0044 7.564-4.4494 6.2291 2.2247 8.4538 7.5639 3.1146 10.234-3.1146 9.7886-8.4538 3.1146"/><path d="m127.7 73.415 8.0089 19.132 14.683 7.119 11.568-4.8943 10.679-8.8988 8.8988-4.8943h6.2291"/><path d="m127.7 35.15 10.679 8.0089 8.4538 4.4494 9.3437-3.1146 3.5595-6.2291-1.7798-12.013-7.119-6.2291v-8.4538l5.3393-3.1146"/><path d="m101 47.608-4.4494 11.123s-12.903 6.6741-15.128 6.2291c-2.2247-0.44494-14.683-8.4538-14.683-8.4538l-0.88988-16.018 5.3393-6.2291 4.0044-11.123-3.1146-4.4494"/><path d="m80.979 74.305-8.4538 4.8943-17.798-0.44494-12.903-9.7886v-9.3437l2.6696-7.5639 0.88988-7.119-5.3393-7.119-17.353 1.7798-4.8943 5.7842 1.3348 10.679"/><path d="m123.69 77.864-1.7798 14.683 0.44494 12.458 3.5595 8.8988 5.7842 7.119 7.564 3.5595 8.8988 2.2247 7.119-1.3348 8.0089-1.7798 8.4538-5.3393 6.2291-4.4494h4.0044l5.7842 3.5595"/><path d="m79.644 81.424-17.798 14.683-11.123 0.88988-9.7886-6.6741-13.348-0.88988-5.3393 3.5595-4.0044 9.7886 3.5595 8.8988 5.7842 1.7798 11.568-1.7798"/></g><g stroke-dasharray="8.46667, 4.23333" stroke-width="4.2333"><path d="m126.81 70.3 0.88987 29.811 8.8988 10.679 12.903 7.119 6.6741-2.2247 8.4538-5.7842 14.238-9.7886 13.793 1.3348 5.7842 7.564 1.3348 12.013-8.4538 7.564"/><path d="m126.81 46.274 9.7886 23.582 22.247 4.8943 20.467-18.687s8.4538-3.5595 10.234-4.0044c1.7798-0.44494 8.0089 0.44494 8.0089 0.44494l15.573 12.903 2.6696 11.568-3.5595 12.013"/><path d="m127.25 43.159 12.013 12.903 8.8988 3.5595 15.573-1.3348 5.7842-6.2291 6.2291-11.123 0.44494-10.679-3.5595-7.5639 0.44494-7.5639 6.6741-5.3393 6.2291 0.88988 3.1146 4.4494"/><path d="m123.25 80.089-8.0089 9.7886-0.88988 8.0089 2.6696 20.467s5.3393 11.123 6.6741 12.903c1.3348 1.7798 8.0089 6.2291 8.0089 6.2291l7.564 1.3348 8.0089-4.0044 7.564-4.4494 6.2291 2.2247 8.4538 7.5639 3.1146 10.234-3.1146 9.7886-8.4538 3.1146"/><path d="m127.7 73.415 8.0089 19.132 14.683 7.119 11.568-4.8943 10.679-8.8988 8.8988-4.8943h6.2291"/><path d="m127.7 35.15 10.679 8.0089 8.4538 4.4494 9.3437-3.1146 3.5595-6.2291-1.7798-12.013-7.119-6.2291v-8.4538l5.3393-3.1146"/><path d="m101 47.608-4.4494 11.123s-12.903 6.6741-15.128 6.2291c-2.2247-0.44494-14.683-8.4538-14.683-8.4538l-0.88988-16.018 5.3393-6.2291 4.0044-11.123-3.1146-4.4494"/><path d="m80.979 74.305-8.4538 4.8943-17.798-0.44494-12.903-9.7886v-9.3437l2.6696-7.5639 0.88988-7.119-5.3393-7.119-17.353 1.7798-4.8943 5.7842 1.3348 10.679"/><path d="m123.69 77.864-1.7798 14.683 0.44494 12.458 3.5595 8.8988 5.7842 7.119 7.564 3.5595 8.8988 2.2247 7.119-1.3348 8.0089-1.7798 8.4538-5.3393 6.2291-4.4494h4.0044l5.7842 3.5595"/><path d="m79.644 81.424-17.798 14.683-11.123 0.88988-9.7886-6.6741-13.348-0.88988-5.3393 3.5595-4.0044 9.7886 3.5595 8.8988 5.7842 1.7798 11.568-1.7798"/><path d="m126.81 70.3 0.88987 29.811 8.8988 10.679 12.903 7.119 6.6741-2.2247 8.4538-5.7842 14.238-9.7886 13.793 1.3348 5.7842 7.564 1.3348 12.013-8.4538 7.564"/><path d="m126.81 46.274 9.7886 23.582 22.247 4.8943 20.467-18.687s8.4538-3.5595 10.234-4.0044c1.7798-0.44494 8.0089 0.44494 8.0089 0.44494l15.573 12.903 2.6696 11.568-3.5595 12.013"/><path d="m127.25 43.159 12.013 12.903 8.8988 3.5595 15.573-1.3348 5.7842-6.2291 6.2291-11.123 0.44494-10.679-3.5595-7.5639 0.44494-7.5639 6.6741-5.3393 6.2291 0.88988 3.1146 4.4494"/><path d="m123.25 80.089-8.0089 9.7886-0.88988 8.0089 2.6696 20.467s5.3393 11.123 6.6741 12.903c1.3348 1.7798 8.0089 6.2291 8.0089 6.2291l7.564 1.3348 8.0089-4.0044 7.564-4.4494 6.2291 2.2247 8.4538 7.5639 3.1146 10.234-3.1146 9.7886-8.4538 3.1146"/><path d="m127.7 73.415 8.0089 19.132 14.683 7.119 11.568-4.8943 10.679-8.8988 8.8988-4.8943h6.2291"/><path d="m127.7 35.15 10.679 8.0089 8.4538 4.4494 9.3437-3.1146 3.5595-6.2291-1.7798-12.013-7.119-6.2291v-8.4538l5.3393-3.1146"/><path d="m101 47.608-4.4494 11.123s-12.903 6.6741-15.128 6.2291c-2.2247-0.44494-14.683-8.4538-14.683-8.4538l-0.88988-16.018 5.3393-6.2291 4.0044-11.123-3.1146-4.4494"/><path d="m80.979 74.305-8.4538 4.8943-17.798-0.44494-12.903-9.7886v-9.3437l2.6696-7.5639 0.88988-7.119-5.3393-7.119-17.353 1.7798-4.8943 5.7842 1.3348 10.679"/><path d="m123.69 77.864-1.7798 14.683 0.44494 12.458 3.5595 8.8988 5.7842 7.119 7.564 3.5595 8.8988 2.2247 7.119-1.3348 8.0089-1.7798 8.4538-5.3393 6.2291-4.4494h4.0044l5.7842 3.5595"/><path d="m79.644 81.424-17.798 14.683-11.123 0.88988-9.7886-6.6741-13.348-0.88988-5.3393 3.5595-4.0044 9.7886 3.5595 8.8988 5.7842 1.7798 11.568-1.7798"/></g></g><g transform="translate(-15.582 -7.5397)" stroke="#000" stroke-width="1.3229"><path d="m117.24 21.246-6.4513 0.22221-7.0078 3.8933-4.2271 7.3417 0.33383 5.0054-1.8908 5.0059 0.88987 6.2291 3.3367 4.1155 2.6696-0.77876 0.03669 0.003101-0.10077 0.90744-2.049 1.5369-3.1145 0.88987-3.1145 4.0044-3.1151 1.7797-5.7841 1.1121-5.5614 1.5575-4.8943 4.4493 1.7797 8.8987 1.3059 1.4242-6.2001 19.043-2.2247 3.7817 0.66714 2.6696 1.7518 0.77876-1.463 5.8524-1.8459-1.2919-7.3417 5.117-9.3436 8.4538-4.6721 3.1145-0.66714 2.8923 0.19172 0.32557-3.9563 5.0865-1.1296-0.5178-2.8923 1.3348-1.557 6.2291-2.0025 5.3392-3.1145 3.7817 1.557 1.1126-0.66714 1.7797 1.5575 0.88987 2.6696-1.3348 1.7797-4.4494 0.44493 2.2247 1.3348 0.22221 2.6696-8.0088 1.7797-1.1121 0.66714-1.5575 1.3348-0.66715-0.22221-3.3373-2.1647-0.99219 3.6422-3.0815 0.30231 0.51418 4.4493 0.22272 18.252-10.14-8.0181 9.9177-7.5639 22.914-3.1145 21.135-3.1145 11.123 1.7446 0.81442-0.37207 3.9072-2.0402 0.84026-0.22221 6.0064 3.5595 3.7822 1.8397-0.38499 1.2046 1.2046-1.9322 1.6273 2.8923 5.117 2.2247 4.0044 1.7797 4.2271 8.4537 12.458 8.8987 19.577 1.8376-0.59067 0.38706 1.2583-1.3348 2.4469 2.2247 5.5619-0.44493 6.0064v8.0088l4.4493 3.56 5.5619-3.7822 2.6696-7.7866 0.66714-10.456 2.2252-10.456-0.22272-3.3373-4.6721-3.3367-6.0704 0.94826-2.1606-8.0672-0.44493-6.674-1.1126-11.346-6.2291-3.1145 1.3348-2.4474-1.7797-5.1165-6.4513-4.2271-1.2898 1.9844-2.051-2.1709 0.22634-0.25838 1.557-3.1145-2.0019-0.88987-3.0086-0.45423 0.55862-1.4516 3.1171 0.79375h4.4493l2.8923-10.901 3.5595-6.0069 10.233-26.251 0.9772-10.754 6.5867 0.52038 0.6103-0.93121-0.16536 6.2704 4.0044 14.238 8.8987 28.921 3.7822 1.557 0.03204-0.00465 1.2578 1.9916-0.84491 0.23771-1.3348 4.4493 2.8918 4.8943 3.1145 1.3348 0.65422-0.25838-0.87643 2.483-0.44493 2.4474 4.4493 2.2247 6.2291 2.2247-1.7797 3.1145 0.66766 4.4493 12.68 12.013 10.456 14.238 3.5595 9.5658 1.6728-0.83664 0.10697 0.3917 3.5595 3.3373 2.2247 14.46 4.6721 6.2296 5.7841 2.002 4.6716-3.1145 0.44494-11.346-2.002-1.7797-0.88987-4.0044-5.117-11.79-2.0019-8.8992-3.7822-3.5595-3.8168 0.84801-6.1945-12.194v-3.1145l-2.2247-11.791-4.0044-4.8943h-4.4493l0.88986-4.4494-3.5595-5.7841-7.3412-2.4474-3.4876 3.6814 2.1528-3.0138-0.44494-1.3348-1.5575-2.4474-3.6261 0.28628-0.77308-2.8024 5.5118-2.8231-2.0025-12.458-1.557-0.44493-0.44493-2.0025 1.7797-1.557-2.4474-22.914-5.117-14.683-2.6086-4.3046 2.3864-3.037-1.1126-3.5595-2.6422-1.865-1.5844-7.9235-4.6721-9.3436-3.282-0.32039-0.77257-1.3389 5.8343-0.34313 0.22273-2.2247-2.9016-2.6696h2.6789l1.0516-0.72812 0.28319 0.28319 1.7797-0.44493 7.5639-11.346 4.0049-8.8987 0.05788-1.7978 14.847 16.703 4.6721 5.3392 3.3368 0.44493 2.9352-2.9352 1.3798 1.2935-2.9802 3.4215 0.22273 6.0069 6.0069 8.4538 3.5595 3.5595 2.002 5.3392 3.4933 1.7467 0.39119 3.2608-1.6598-0.11317-1.557 1.7797-2.8923 8.8987-3.1145 2.4474 2.2247 2.002 3.5595-2.2247 0.66766-1.557 0.44493 1.7797-2.8923 11.568 2.0025 1.3348 3.5595-9.1214h1.7797l0.22221 7.5639 0.22273 2.4474 2.0019-0.44494 0.88987-8.8987 0.66766-1.3348 4.2266 8.8987 1.3348-1.3348-2.6696-10.011 7.119 5.117 0.66766-1.3348-4.8943-6.674-1.3348-7.5644-2.4474-2.6696-3.5988-0.24546 1.819-6.8735-0.11679 0.01188 1.2294-2.4588-5.3392-12.458-0.44493-3.7822-5.7841-10.233-2.2247-1.5575-3.3373 1.7797-0.79065 0.90796-1.157-1.602 1.9477-2.6427v-2.8923l-5.5619-6.0064-13.125-16.908-1.8939-1.0521 0.1142-2.2846-5.5619-5.7841-5.4653 0.71882 1.572-1.2754 1.4464-4.2266 1.3348-6.7851-1.4464-6.3407-3.8933-5.5614-7.5639-4.2271zm-32.237 68.997 0.071314 0.022221-0.085783 0.1571 0.014469-0.17932zm-1.465 8.6269 1.1069 0.92242-1.9487 3.298-0.65732-0.07596 1.4991-4.1445zm-7.892 23.259 0.2837 0.20154-0.88728 0.13643 0.59635-0.33125 0.007235-0.00672z" stroke="none"/></g><g transform="translate(-15.582 -7.5397)" fill="#fff" opacity=".44615" stroke="#fff"><path d="m111.46 21.58-7.4528 3.8933-4.1155 7.0073-0.22221 3.4484 2.7807-4.1155 3.2256-1.2237 0.77877 1.2237 1.2237-0.1111 2.002-2.3363 2.2247-0.44493 6.7856 1.6686 3.1977 4.8235-1.8629-0.15141-5.5619-1.7797-3.1145 0.55604-3.6706-1.2237-1.3348 1.001-1.5575 0.11162-1.7797 2.3358-3.1145 1.4459-1.4459 4.116 1.1121 2.4469 3.7264 0.27802 0.50074-6.7293 1.1121-3.1151 3.6711 2.6701 2.28 5.6172 4.9501-0.61185 3.0034-0.66766 2.3358 1.3348 5.4508-3.0029 2.113-0.44493 0.84801-3.392 0.37569-0.50126-1.4459-5.0059-3.6711-5.0054-7.119-4.0044-6.2291-0.1111zm16.463 18.91-0.66766 2.0019-3.3373 1.2237-1.4459-0.33383 0.55604 1.5575 2.7812 0.33331 2.7807-1.3348 0.77876-2.4469-1.4459-1.001zm3.3368 8.676-8.6765 0.88987-2.4469 3.3373-1.7244-0.38964-3.3926 2.3916-0.0553 2.1694 7.397-4.6163 1.3348 0.22221 0.66714-1.7797 7.1195-0.22221 5.5614 4.4493-5.7841-6.4518zm-20.467 2.4474-5.5619 2.6696-1.1121 1.3348-4.8943 1.1121-3.56 3.3373-0.3576 0.91932-4.9816 1.0826-7.7861 2.2247-4.6721 3.7822 0.22273 3.1145 4.0044-1.3348 6.2291 1.7797h0.50591l-1.3958 5.7841 1.7797 1.3348 4.8943-2.2247-0.88987-5.1165 1.1121-6.8967-0.29921 0.36174 0.25115-0.69763 1.6056 1.003 4.2271-2.8918 5.5614 0.22221 7.5639 3.7822 0.81597-0.37104-0.37103 0.37104 0.66765 1.5575 0.22221 4.4493 1.6686 0.88987 1.6686-2.8923-0.22273-2.4469-2.0422-2.8205-0.84956-3.1864-1.3348-4.0044 0.22221-3.5595 3.3373-1.7797-6.2291-0.88987zm18.131 1.2237-6.118 2.0019 0.11111 2.0025 3.6711-1.3348 5.3392 0.88987 1.1121 1.7797-0.80564 4.7873 10.149 10.452 4.6721 1.001 0.22221 1.6686-1.001 1.3348 3.4484 2.8923 6.5629 1.557 0.77876-0.88987-9.1214-10.345-9.0103-11.346-5.6725-4.8943-4.3382-1.557zm-14.794 21.023-0.1111 0.88987 1.8908 1.4459 0.44493-1.1121-2.2247-1.2237zm-19.911 5.3392-3.6706 1.3348-3.2256 2.6696-1.7797 3.7822-0.66766 3.0034 4.7832-2.1136 4.6716-0.16692 10.234 2.9476 0.44493-2.1136-2.6696-0.22221-1.6686-2.1136-1.2237-2.8918-2.3358-2.5585-2.8923-1.5575zm-14.238 1.4459-2.1136 6.3407-4.0044 11.679-1.557 3.0034 0.77825 1.6686 1.5575-3.3373 2.3358-2.8918 3.2256-10.456 0.44493-4.3382-0.66714-1.6686zm81.757 7.0078-3.3367 0.22272v5.0054l-3.0034 3.0034-3.4484-0.44493 1.3348 1.4459h3.2256l1.4464-1.2237 0.91209-1.8242 3.5372 4.7165 2.8918 1.7797 0.66766-2.0019-0.66766-3.1151-3.5595-7.5639zm-55.396 1.8722-0.33383 1.7797 2.0578 1.001-1.7239-2.7807zm-11.4 0.24133-6.5071 0.33383-3.3367 1.3348-0.88987 1.557-0.44493 1.7797 4.0597-2.0019 7.0078-0.33383 7.5086 1.6128 4.1155-0.50023-2.0025-1.4464-9.5105-2.3358zm4.1713 9.6774-7.7861 2.2247-7.7308 1.0568-4.1713 0.38912 4.1155 0.66766 7.7866-1.001 8.5649-2.2247 7.6197-0.05581-1.001-1.0568h-7.3975zm67.074 1.3348-0.88986 2.6696 2.4474 7.3417 3.5595 0.66714-0.22272-2.2247-4.8943-8.4537zm-61.068 3.4484-4.6721 3.4484 0.44493 1.7797 1.7797-2.3363 3.1145-1.3348 2.5585 1.0015 3.2262 3.2256-1.2237-4.5604-5.2281-1.2237zm-28.921 3.8933-2.2247 1.001-0.33331 1.7797 1.6681-1.001 2.3363-0.22272 1.8908 2.0025-0.66766-3.1145-2.6696-0.44493zm15.239 1.2232-7.0078 0.77876-1.557 1.8914 1.4459-0.33383 5.8952-1.001 5.2281 0.55604-4.0044-1.8914zm-20.245 0.88987-7.3417 4.7832-8.1199 7.3417-5.8952 4.0044-0.44493 2.5585 2.3358-1.2237 2.2247 1.7797 16.129-8.7876 1.8908-3.3368 0.77876-2.4474-3.2262-1.001 2.2247-2.7812-0.55604-0.88986zm32.703 4.6721-5.1165 1.001-3.2262 3.6711 0.1111 1.3348 3.4484-2.3363 7.3417-0.77825 3.6706-1.2237-3.1145-0.55603-3.1145-1.1126zm9.0103 6.2291-5.673 1.5575-2.6696 7.23-3.8933 6.4518-1.8908 3.5595 1.1121 6.8962 2.7807 8.6765 4.561 0.66766 1.6681 4.5604 4.116-0.33383 0.77877 3.4484-4.4499 1.6686 0.02377 0.0894-0.46871-0.20102-4.8943-0.33331 3.5595 1.4459 2.1482 0.37362 1.3002 4.8545 7.6745-0.42013-3.2251 4.8695-1.7797 0.77876-0.55604 2.7807 3.4024 1.8562 0.09199 2.1435 2.5203 1.4733 9.1245-3.3755-0.4563-9.8842-4.5976-1.4268 2.2619-4.0235 1.1126-1.1126-1.1126-19.688-3.5595-10.901-4.0044-8.8987-3.7822-4.6721-1.2232-0.1111zm52.836 2.1136-2.002 1.557 1.1121 3.3373 4.2271-2.8923h5.3392l0.66715-1.3348-9.3436-0.66714zm-92.547 1.001-6.5629 10.122-5.117 11.791-3.0034 12.903-3.2256 19.466-0.003101 8.3426 6.01 1.1126 3.1176-3.6644 4.6684-2.5652-0.1111-5.4503 1.6686-5.3392 3.4484-1.001 3.7817-7.4528-3.2256-4.5604 2.2247-7.1195 4.1155-0.88987 1.5575-7.0073-3.3373-7.3417-4.6716-4.0044 1.4459-4.7832-2.7807-2.5585zm89.988 2.8923-2.2247 6.3402-2.4469 2.0025 0.44493 0.88987 2.7807-1.0015 1.6686-5.8952-0.22273-2.3358zm10.679 5.4503-1.3348 0.77877 0.55604 1.001 1.6686-0.44494-0.88987-1.3348zm-129.59 1.8908-2.6696 0.88987-1.8908 7.3417-1.5575 4.5604 2.0025-2.6696-0.55604-1.1121h0.88987l1.001-2.0025 1.001-2.4469 3.2737-1.7952 0.063562 0.57154-1.3348 1.6686-0.33383 2.1136 1.4459 1.001 0.33383-1.3348 1.2237-1.3348 1.3348-1.3348 0.1111-1.6686-1.6686-1.1126-0.040307 0.03308-2.6293-1.3679zm-7.0078 13.349-2.5585 2.4469 0.55656 0.55604 2.0019-3.0029zm44.437 4.5604-3.1145 0.55604-0.77876 1.8908 2.5585-1.557 1.3348-0.88987zm47.039 37.166-4.8374 1.218-6.0668 0.8878 1.4325 0.69195 3.529 0.59428 5.1392 1.0092 2.8649-1.3462-1.2718-2.1844-0.78962-0.87074zm4.946 3.3373-3.1662 2.7807-0.58911 1.3999-5.7919 5.2607 3.898-2.7394 1.4872-0.03928 2.8463-3.1166 4.1155 1.8908 2.3063-1.3136 3.961 3.7553-3.0226-5.3718-6.0446-2.5068zm-66.277 5.4369-0.33383 2.8923 0.66714 0.1111 1.4464-1.3348-1.7797-1.6686zm4.0044 1.001 4.1155 4.0044 2.0019 5.8958 1.3348-1.0015-0.44493-2.4469-1.6681-3.1145-4.2271-2.6696-1.1121-0.66766zm74.972 6.0069-3.0029 0.33383-2.1136 1.4459 1.6686 3.4484 0.44493 6.3402 6.3402 9.1214 5.5619 9.4547 8.1199 10.79-0.66766-3.6711-0.03618-0.06511 3.2623 0.28783 1.1121 5.673-1.7797 1.6681v5.2281l1.4459 3.0034 4.561 5.7841 2.002-0.22221 1.6686-0.44493-2.1136-5.0059-2.3358-4.7832-1.5575-4.7826-1.8908-6.8967-1.001-2.8923-4.2271-2.4469-2.002 0.55604 0.21394 0.47904-0.32504-0.59015-5.2281-8.5654-3.0034-16.018-1.6686-3.7817-3.4484-3.4484zm-67.853 5.673-1.6686 0.88987-5.3392 2.558 4.0044-0.88987 2.2247-1.3348 3.2256 2.5585 4.0044 14.461-0.44493-5.2281-0.66714-10.456-5.3392-2.558zm14.683 27.697-3.6706 0.22272-1.7797 0.88987 1.1121 3.0034 2.0025 2.113 6.4513 0.77877 0.88987-1.6686-0.77825-2.558-4.2271-2.7812zm71.858 6.0069 0.1111 4.3382 1.2237-1.1126-1.3348-3.2256zm-75.862 0.11111-0.44493 2.4474-0.44493 1.8908 1.9895-1.5916-0.98857 1.2578 0.22273 2.7812 0.88987-0.66766 0.1111-2.4469 1.3348-0.66766 0.22221-1.001-1.341 0.38344 0.34003-0.27234-1.8908-2.1136zm85.428 19.355-1.8908 0.33383-1.557 0.88987v1.2237l1.8908 0.33331 1.4459-1.1121 1.5575 0.88987-0.44493 1.8908 1.2232 1.4459 0.55656-1.3348-1.0015-3.2256-1.7797-1.3348zm-82.424 2.0025-2.3363 0.55604-0.66714 1.001 0.88987 0.33383 2.0019-0.66766 1.0015 0.66766 0.66714 1.6686 0.33383-2.1136-1.8908-1.4459zm78.42 0.77825-1.001 0.77876 1.7797 5.117 0.22272-2.1136 0.66715-1.1126 2.0025-1.3348-1.3348-1.3348h-2.3363zm-80.645 3.2262 0.1111 1.7797 1.001 0.11111 1.5575-1.4459-1.2237 0.55604-1.4459-1.001z" fill="#93daf8" opacity="1" stroke="#0d94ce" stroke-width=".79375"/></g><g transform="translate(-15.582 -7.5397)" fill="#fff"><path d="m110.79 21.913-6.674 3.3373-3.4484 5.8952-0.1111 0.77876 4.6716-5.673 5.4508-2.0019 5.4503-0.55604s3.4481 1.3345 4.1155 1.557 5.0054 3.5595 5.0054 3.5595l3.2262 5.117 1.3348 2.3358-0.22272-2.3358-1.3348-4.0044-3.4484-4.4493-6.8962-3.4484-7.119-0.11162zm-2.7755 11.707-2.2355 1.0201 3.3424 1.1777-1.1069-2.1978zm6.5572 0.30696-2.113 0.44493-0.55655 1.2232h2.2247l3.3373 0.66766 2.4469-0.44493-5.3392-1.8908zm-10.345 1.7797-1.4459 1.4459-2.6696 0.77876-0.88986 3.5595 1.4459-2.1136 2.1136-1.4459 1.4459-2.2247zm24.138 5.3392-0.66766 1.7797-0.66715 0.77876 1.1121-0.33383 0.88987-1.4459-0.66714-0.77876zm2.5166 8.3494-5.1914 0.78652 0.62942 0.94413h4.2473l2.3596 0.47181-2.0448-2.2024zm-19.313 2.6629-1.0015 0.55604 1.3348 0.33383-1.8908 2.4469 1.8908-0.22221 1.4464-2.0025 2.2247-0.33331-1.8914-0.33383-2.113-0.44493zm17.019 1.1121-2.5585 0.66766-1.8908 1.3348 0.77877 0.22221 3.3368-0.66714 2.7812 0.55604 2.558 0.88987 0.55656-0.88987-5.5619-2.1136zm-23.137 2.5585-4.8943 0.44493-1.7797 1.2237-0.44493 1.4459 1.8908-1.2237 6.5629 0.66766 0.66714-1.4459-2.002-1.1126zm2.9357 1.5322-0.31471 1.4159 2.3596 0.94361-2.0448-2.3595zm28.543 1.4712 4.5604 6.0064 6.8967 8.1204 7.5639 7.7861 0.44493-0.44493-7.1189-8.1199-5.7841-6.4518-4.7832-6.3402-1.7797-0.55604zm-42.825 2.7807-5.0054 1.2237-4.0044 0.88987-3.0034 1.2237-1.1126 1.557 3.7822-0.66714 4.8943 1.001 3.2256-0.66766 1.001-2.2247 0.22273-2.3358zm-2.8649 9.9059-1.573 2.8314 1.8877 0.94413-0.31471-3.7755zm3.3099 9.2263-0.22272 0.89038 0.29921 0.33228-0.52142 5.0069 0.77876-4.6721-0.025839-0.077515 1.4717 1.635 1.001-0.55656-0.22221-1.6681-2.5585-0.89038zm-14.793 2.2572-3.6184 11.641 3.4608-8.9669 0.15761-2.6743zm75.509 4.0902-0.94413 0.94361 1.2583 1.573 0.78703-1.2583-1.1012-1.2583zm6.8042 0.77205-1.8908 0.44493 1.001 1.4459 1.3348 1.6686 0.88987-0.77876-1.3348-2.7807zm-67.519 2.113-0.55604 2.1136 0.55604-2.1136zm2.1136 10.456-6.0069 1.2237-1.7797 1.1121 9.2325-2.002-1.4459-0.33383zm72.13 6.3221 0.31471 3.6184 1.573-0.15761-1.8877-3.4608zm-101.16 6.2477-3.2256 1.8908-6.674 6.0064-3.3373 2.8923-2.5585 1.3348-2.0019 2.1136 0.66714 0.33383 4.6721-3.4484 2.1136 0.33331 0.44493-1.8908 7.675-5.8952h3.7822l0.77825-0.66765 1.4464-0.77825-2.2247-1.0015-1.5575-1.2232zm36.151 2.2247-0.44493 1.1121 2.4469 0.77876 1.4464-0.66766-3.4484-1.2232zm10.678 7.8972-4.1155 0.55656-0.66766 2.6696 0.22272 3.2256 1.557 1.001 0.22272 2.6696-1.1126 0.88987-0.22221 3.3373 2.2247 1.2237 1.3348 6.4513-1.001 2.4474 3.0029 5.5614 1.8914 0.44493 1.001-5.6725 0.77876-2.3363-1.4464-0.33331-0.44494-6.3407 1.2237-0.77876 0.55604-2.4469-2.2247-0.77877-1.001-3.1145 1.3348-1.3348v-2.6696l-3.1145-4.6721zm52.614 0.77876-1.7797 0.22273-0.11111 1.7797 2.3358-1.1126-0.44494-0.88987zm-94.66 2.4474-5.3392 7.4528-5.3392 12.792-1.3348 10.79 3.7817-2.0019 1.6686-3.8933 0.33383-1.4464 1.8908-1.001 2.0025-6.0064-1.2237-1.4464 1.001-4.3382 2.0025-0.22221 1.8908-4.8943-1.001-4.7832-0.33383-1.001zm-28.476 8.231-2.0019 0.55656-0.66766 3.1145 0.88987-1.5575 2.0025-0.77877-0.22273-1.3348zm116.91 0.22273-2.0019 0.44493 0.22221 0.66714 1.7797-1.1121zm-115.46 4.4493-0.44494 1.5575 1.3348-1.0015-0.88987-0.55604zm76.418 25.139-4.3382 1.1121-0.1111 1.4464 1.557 0.88987 3.7822-2.0025-0.88987-1.4459zm1.7797 10.678-4.8943 1.6686 0.11111 1.8908 5.3392-1.8908-0.55603-1.6686zm-66.518 3.8933 0.66766 3.1145 3.4479 1.1121 1.4464-1.6681-4.8943-2.1136-0.66766-0.44494zm19.232 23.277-0.94413 0.47232 1.7306 2.0448-0.78652-2.5172zm4.0897 10.54 0.94413 1.573 2.2024 3.3037 0.1571-3.6184-3.3037-1.2583zm81.684 24.359-1.6686 1.1121 2.0025 2.7807 1.3348-1.4459h2.002l-1.8908-1.8908-1.7797-0.55604zm-68.632 1.8908-2.3358 0.55604 2.5585 0.22272-0.22273-0.77876zm1.5575 1.2237-2.1136 0.55604-1.001 0.22221-2.2247-0.11111 2.5585 2.2247 3.4479 0.44494 0.77876-1.2237-1.4459-2.113zm-5.2281 5.2281-0.66714 2.113 1.1121-1.1121-0.44493-1.001zm77.864 3.3368-2.113 1.1126v3.7817l0.44494-1.1121 1.557-1.8914 0.1111-1.8908zm6.0069 15.628-1.557 0.61185-0.27854 0.72296 0.66766 0.05581 0.61185-0.83458 0.55604-0.55604zm-1.7797 2.7254-1.001 0.16691 2.3358 0.88987 0.33383-0.50074-1.6686-0.55604z" fill="#a3f2f5" stroke="#0d94ce" stroke-width=".52917"/></g><g transform="translate(-15.582 -7.5397)"><path d="m103.23 65.74-5.3392 3.4484v2.558l2.2247 2.1136s4.8942 0.88974 5.4503 1.001c0.55617 0.11123 5.5614-1.7797 5.5614-1.7797l1.6686-4.0044-3.1145-0.55604-3.3368-1.557zm25.695 5.3392 6.5629 7.8977 0.55604-0.33383 0.77876 0.66714-0.22272 0.77876 10.233 11.457 2.6696 0.33383 0.77876-1.001-3.2256-2.2247-3.2256-4.116-3.1145-4.6715-4.0049-4.3382-5.2276-4.3382zm-46.83 2.0019-2.8923 1.2237 0.22272 2.7807s0.88974 1.0012 1.4459 1.2237c0.55617 0.22247 2.2247 0.1111 2.2247 0.1111l2.6696-1.001 1.4459-3.2256-2.7807-0.88987zm43.381 1.6686-3.1145 5.2281-4.4493 5.673-2.3358 1.7797-1.4113 0.14831-3.1497-2.8179-7.4528-4.561-6.1175-2.113 3.7817 2.2247 6.2291 3.6706 6.118 4.8943 1.8908 2.0025 1.0015-0.55656-0.24081-0.35037 4.3563-5.9898 2.5585-3.7822zm-35.929 5.4503-3.2262 1.7803-1.2232 2.7807-0.11162 3.7817 1.3348-3.3367 1.0015-2.5585zm63.737 20.579 3.8933 7.1189 3.0034 2.6696 3.1145 5.5619-1.6686-4.4493-2.5585-5.3392-1.8908-4.561zm-76.529 16.351-1.2237 0.55604 0.22221 0.55656 1.6686-0.44494 2.2247 1.6681 2.5585 5.4508 0.77876 2.7807-1.2237-6.5629-2.5585-2.8918zm-3.7822 4.5604-1.4459 0.77876-16.351 9.2325-0.66766 1.1126 1.4464 0.22221 16.24-8.8987 0.88987-0.77876zm17.797 6.3407-1.4459 0.88986-2.1136-0.77876-2.0019 1.1126 0.55604 2.113 1.7797 3.7822 2.6696 2.2247 4.6721-0.44493 1.001 0.22221 0.33383-1.557-1.2237-4.2271-0.66766-2.8918zm-47.163 12.235 1.2232 2.6701h0.77876l-0.44493-1.1126zm0.1111 6.0069-1.7797 2.4474 0.44493 2.113 0.66714-0.11111 1.0015-3.1145zm-3.4484 4.1155-0.88987 0.77876-2.2247 3.1145 2.4474-1.6686zm61.513 10.234 8.1204 26.919 3.7817 0.77824 2.8923-1.3348-4.0044-0.77825-0.66766-2.5585-2.2247-3.6711-1.1121-4.4493v-4.2266l-1.8914-1.8914-2.3358-4.1155zm23.693 37.819-5.8952 0.33383h-4.561l1.3348 1.6686 2.8923 1.001 4.2266-1.1126zm-62.959 1.1126-4.5604 1.1121-3.2256-0.1111-2.2247-0.44494 2.2247 3.2256 2.2247-0.22221 4.5604-1.1126 3.2256-2.1136zm70.412 6.674-5.2281 1.557-7.7866-0.88987 0.66766 1.1126 7.5639 3.1145 1.8908-1.001zm-75.639 0.44493-0.22272 1.2237 3.3373 6.0064 2.2247 4.7832 1.8908 2.6696 6.4518 10.011 9.3436 20.133 1.8908-1.557-5.2281-11.568 0.77876-1.1126-1.3348-0.11111-4.3382-10.345-3.5595-8.0088-3.5595 0.44493 1.2237-2.2247-3.2262-3.7817-2.8918-4.0044zm70.745 10.79-0.22273 1.6686 12.236 12.013 11.234 14.794 3.3373 7.8977 4.4493-1.6686 0.55604-1.2237-6.674-5.1165-10.456-16.24-12.57-11.902zm-45.829 37.375-0.44493 1.001 1.6686 3.7822 1.4459 0.11111 4.2271-2.3358-1.2237-2.3363-2.6696 0.88987zm78.087 5.673 0.77876 4.5604c0 0.44495 1.4459 7.675 1.4459 7.675l4.7832 6.118 3.8933 1.0015 0.66714-0.44493-0.44493-1.6686-3.2256-3.6711-3.4484-3.6706zm-76.529 0.66715-0.55656 1.4464-0.1111 11.234 2.8923 2.1136-1.4464-4.0044v-8.4537l0.66766-1.5575z" fill="#631203" stroke="#380a0b" stroke-width=".52917"/></g><g transform="translate(-15.582 -7.5397)" display="none" opacity=".48308"><image x="-33.518" y="-37.349" width="276.59" height="368.79" preserveAspectRatio="none" xlink:href="file:///Users/poppijanne/Pictures/outron-demo/IMG_3424.jpg"/></g><g transform="translate(-15.582 -7.5397)" display="none" fill="#f00"><path d="m111.69 31.776 2.045-0.62924 3.1462 0.47193 1.4158 1.7304-4.8766-0.78654z"/><path d="m104.3 33.664-2.8316 2.2023 1.7304-3.1462 2.2023-0.15731z"/></g></svg>
