<?xml version="1.0" encoding="UTF-8"?>
<svg
version="1.1"
viewBox="-40 -20 426.1 126.367"
xml:space="preserve"
xmlns="http://www.w3.org/2000/svg"
xmlns:xlink="http://www.w3.org/1999/xlink"
>
<defs>
    <linearGradient
    id="linearGradient12557"
    x1="19.373"
    x2="774.38"
    y1="342.56"
    y2="342.56"
    gradientTransform="matrix(.45841 0 0 .45841 10.492 134.51)"
    gradientUnits="userSpaceOnUse"
    >
    <stop stop-color="#ffbdfd" offset=".19241" />
    <stop stop-color="#00ffe6" offset=".87805" />
    </linearGradient>
    <filter
    id="filter3185"
    x="-.01867"
    y="-.07784"
    width="1.0355"
    height="1.1557"
    color-interpolation-filters="sRGB"
    >
    <feGaussianBlur stdDeviation="2.2413395" />
    </filter>
</defs>
<g
    transform="translate(-19.373 -248.36)"
    fill="none"
    stroke="url(#linearGradient12557)"
    stroke-width=".97032"
>
    <path
    d="m176.44 249.94c-4.5263 4.4751-9.0531 8.9498-13.58 13.424v3.8338h-6.397c-1.9764 1.9552-3.954 3.9093-5.9309 5.8641v-5.8641h-13.998v26.02l-3.8727 3.8338h-12.33v-29.854h-13.998v43.722h32.979c3.7395-3.6982 7.4796-7.3958 11.22-11.093v-18.761h12.328v47.526c4.6659-4.613 9.3324-9.2256 13.999-13.838v-33.688h6.397c1.9762-1.9552 3.9534-3.9093 5.93-5.8641v35.718h13.999v-12.182c11.744 11.61 23.49 23.219 35.234 34.83v-20.447c-0.74267-0.7333-1.4846-1.4674-2.2269-2.201h43.654v-43.722h-44.199v43.183c-5.5129-5.4486-11.026-10.897-16.539-16.346 4.7595-4.7035 9.5185-9.4074 14.278-14.111v-12.726h-56.526v-17.673zm105.67 8.4651v52.515h13.998v-20.931c10.665 5.8123 0 0 68.963 38.569-22.771-34.768 0 0-39.676-61.359h-14.594c3.7337 6.1851 7.4679 12.37 11.202 18.555-13.298-9.2725-26.595-18.545-39.893-27.818zm-221.41 8.9041c-13.425 20.677-26.85 41.357-40.274 62.037 27.882-6.273 55.765-12.545 83.648-18.816v-43.332h-43.301c-0.0242 0.037-0.04833 0.074-0.07254 0.11109zm29.374 13.757v16.384c-12.154 2.7898-22.015 4.0576-34.168 6.8474l16.965-23.231zm121.47 0c-2.7876 2.7558-5.5752 5.5116-8.3628 8.2673v-8.2673zm54.3 0v15.986h-16.202v-15.986z"
    filter="url(#filter3185)"
    />
    <path
    d="m176.44 249.94c-4.5263 4.4751-9.0531 8.9498-13.58 13.424v3.8338h-6.397c-1.9764 1.9552-3.954 3.9093-5.9309 5.8641v-5.8641h-13.998v26.02l-3.8727 3.8338h-12.33v-29.854h-13.998v43.722h32.979c3.7395-3.6982 7.4796-7.3958 11.22-11.093v-18.761h12.328v47.526c4.6659-4.613 9.3324-9.2256 13.999-13.838v-33.688h6.397c1.9762-1.9552 3.9534-3.9093 5.93-5.8641v35.718h13.999v-12.182c11.744 11.61 23.49 23.219 35.234 34.83v-20.447c-0.74267-0.7333-1.4846-1.4674-2.2269-2.201h43.654v-43.722h-44.199v43.183c-5.5129-5.4486-11.026-10.897-16.539-16.346 4.7595-4.7035 9.5185-9.4074 14.278-14.111v-12.726h-56.526v-17.673zm105.67 8.4651v52.515h13.998v-20.931c10.665 5.8123 0 0 68.963 38.569-22.771-34.768 0 0-39.676-61.359h-14.594c3.7337 6.1851 7.4679 12.37 11.202 18.555-13.298-9.2725-26.595-18.545-39.893-27.818zm-221.41 8.9041c-13.425 20.677-26.85 41.357-40.274 62.037 27.882-6.273 55.765-12.545 83.648-18.816v-43.332h-43.301c-0.0242 0.037-0.04833 0.074-0.07254 0.11109zm29.374 13.757v16.384c-12.154 2.7898-22.015 4.0576-34.168 6.8474l16.965-23.231zm121.47 0c-2.7876 2.7558-5.5752 5.5116-8.3628 8.2673v-8.2673zm54.3 0v15.986h-16.202v-15.986z"
    />
</g>
</svg>