<?xml version="1.0" encoding="UTF-8"?>
<!-- Created with Inkscape (http://www.inkscape.org/) -->
<svg version="1.1" viewBox="0 0 230.6 73.124" xmlns="http://www.w3.org/2000/svg">
 <defs>
  <filter id="filter18268" x="-.028722" y="-.11475" width="1.0574" height="1.2295" color-interpolation-filters="sRGB">
   <feGaussianBlur stdDeviation="2.4443924"/>
  </filter>
 </defs>
 <g transform="translate(-28.551 -53.885)" fill="none" stroke="#f00" stroke-width=".52917">
  <g filter="url(#filter18268)" style="mix-blend-mode:normal" aria-label="DRiFTER">
   <path d="m169.62 60.71-7.9298 7.9297v3.9651h-5.9474l-5.9474 5.9474v-5.9474h-31.72v43.614l7.9303-7.9297v-15.86h15.86l7.9298-7.9297h-23.79v-3.9651h35.685v35.685l7.9298-7.9297v-27.755h5.9474l5.9474-5.9469v5.9469h31.72v-7.9297h-43.615zm-134.81 11.895v31.72h31.72v-23.79l-7.9297-7.9297zm35.685 0v31.72h7.9297v-23.79h11.895l-11.895 11.895 27.755 27.755v-11.895l-15.86-15.86 11.895-11.895v-7.9297zm35.685 0v31.72h7.9303v-31.72zm111.02 0v31.72h7.9298v-23.79h11.895l-11.895 11.895 27.755 27.755v-11.895l-15.86-15.86 11.895-11.895v-7.9297zm-174.46 7.9297h11.895l3.9651 3.9651v11.895h-15.86zm138.77 3.9651v7.9297h31.72v-7.9297zm0 11.895v7.9297h31.72v-7.9297z" fill="none" stroke="#f00" stroke-width=".79375"/>
  </g>
  <g aria-label="DRiFTER">
   <path d="m169.62 60.71-7.9298 7.9297v3.9651h-5.9474l-5.9474 5.9474v-5.9474h-31.72v43.614l7.9303-7.9297v-15.86h15.86l7.9298-7.9297h-23.79v-3.9651h35.685v35.685l7.9298-7.9297v-27.755h5.9474l5.9474-5.9469v5.9469h31.72v-7.9297h-43.615zm-134.81 11.895v31.72h31.72v-23.79l-7.9297-7.9297zm35.685 0v31.72h7.9297v-23.79h11.895l-11.895 11.895 27.755 27.755v-11.895l-15.86-15.86 11.895-11.895v-7.9297zm35.685 0v31.72h7.9303v-31.72zm111.02 0v31.72h7.9298v-23.79h11.895l-11.895 11.895 27.755 27.755v-11.895l-15.86-15.86 11.895-11.895v-7.9297zm-174.46 7.9297h11.895l3.9651 3.9651v11.895h-15.86zm138.77 3.9651v7.9297h31.72v-7.9297zm0 11.895v7.9297h31.72v-7.9297z" fill="none" stroke="#f00" stroke-width=".79375"/>
  </g>
 </g>
</svg>
