<?xml version="1.0" encoding="UTF-8"?>
<!-- Created with Inkscape (http://www.inkscape.org/) -->
<svg version="1.1" viewBox="0 0 226.03 62.495" xmlns="http://www.w3.org/2000/svg" xmlns:xlink="http://www.w3.org/1999/xlink">
 <defs>
  <linearGradient id="linearGradient7880" x1="152.67" x2="152.67" y1="60.459" y2="119.95" gradientUnits="userSpaceOnUse">
   <stop stop-color="#ffe000" offset=".16712"/>
   <stop stop-color="#ff5b1b" offset=".5283"/>
   <stop stop-color="#f0e" offset=".94879"/>
  </linearGradient>
  <filter id="filter7890" x="-.006778" y="-.026377" width="1.0136" height="1.0528" color-interpolation-filters="sRGB">
   <feGaussianBlur stdDeviation="0.62980829"/>
  </filter>
  <linearGradient id="linearGradient7923" x1="120.75" x2="120.75" y1="68.411" y2="130.07" gradientUnits="userSpaceOnUse">
   <stop stop-color="#f00" offset="0"/>
   <stop stop-color="#a80000" offset="1"/>
  </linearGradient>
 </defs>
 <g transform="translate(-33.636 -65.708)" fill="#f00" stroke="#f00" stroke-width=".52917">
  <g fill="#f00" aria-label="DRiFTER">
   <path d="m167.38 69.386-6.7795 6.6225 0.13997 3.4143h-5.4526l-5.4092 5.256-0.0434-5.256h-29.081l-3.3846 42.822 8.6963-8.586 0.91811-16.047 15.334-1e-6 7.605-7.5089h-22.51l0.208-3.6356 33.408-1e-6 1.4668 35.778 7.6652-8.586-1.7082-27.192h5.5679l5.0604-5.3108 0.50747 5.3108h29.696l-1.2882-7.0448h-39.986zm-122.96 10.037-9.2734 30.09h31.708l5.0904-23.044-5.7138-7.0449zm32.716 0-6.3183 30.09h7.9266l4.336-23.044h11.136l-13.233 11.145 23.585 29.079 1.4566-13.032-13.541-16.047 12.868-11.145 0.86431-7.0449zm32.716-1e-6 -3.3633 30.09 7.9272-1e-5 2.7066-30.09zm101.78 0 5.8303 30.09h7.9267l-4.9681-23.044h11.136l-8.7333 11.145 35.325 29.079-3.8049-13.032-20.02-16.047 8.3684-11.145-1.98-7.0449zm-161.96 7.0448h11.136l2.8296 3.6356-2.7641 11.388h-15.504zm130.26 3.6356 0.71741 7.5089 30.669-1e-6 -1.3729-7.5089zm1.088 11.388 0.76628 8.0204h31.708l-1.4664-8.0204z" fill="#000" filter="url(#filter7890)" opacity=".80734" stroke="none" stroke-width=".79375"/>
  </g>
 </g>
 <g transform="translate(-33.636 -68.497)" fill="#f00" stroke="#f00" stroke-width=".52917">
  <g fill="#f00" aria-label="DRiFTER">
   <path d="m167.38 69.386-6.7795 6.6225 0.13997 3.4143h-5.4526l-5.4092 5.256-0.0434-5.256-29.081 1e-6 -3.3846 42.822 8.6963-8.586 0.91811-16.047h15.334l7.605-7.5089-22.51 1e-6 0.208-3.6356 33.408-1e-6 1.4668 35.778 7.6652-8.586-1.7082-27.192h5.5679l5.0604-5.3108 0.50747 5.3108h29.696l-1.2882-7.0448-39.986 1e-6zm-122.96 10.037-9.2734 30.09h31.708l5.0904-23.044-5.7138-7.0449zm32.716 0-6.3183 30.09h7.9266l4.336-23.044h11.136l-13.233 11.145 23.585 29.079 1.4566-13.032-13.541-16.047 12.868-11.145 0.86432-7.0449zm32.716 0-3.3633 30.09h7.9272l2.7066-30.09zm101.78-2e-6 5.8303 30.09h7.9267l-4.9681-23.044 11.136-1e-6 -8.7333 11.145 35.325 29.079-3.8049-13.032-20.02-16.047 8.3684-11.145-1.98-7.0449zm-161.96 7.0448h11.136l2.8296 3.6356-2.7641 11.388h-15.504zm130.26 3.6356 0.71741 7.5089 30.669-1e-6 -1.3729-7.5089zm1.088 11.388 0.76628 8.0204h31.708l-1.4664-8.0204z" fill="url(#linearGradient7923)" stroke="url(#linearGradient7880)" stroke-width=".79375"/>
  </g>
 </g>
</svg>
