<svg version="1.1" viewBox="0 0 423.33 396.88" xml:space="preserve" xmlns="http://www.w3.org/2000/svg" xmlns:xlink="http://www.w3.org/1999/xlink"><defs><filter id="filter17839" x="-.88455" y="-.62439" width="2.7691" height="2.2488" color-interpolation-filters="sRGB"><feGaussianBlur stdDeviation="2.8503839"/></filter><filter id="filter17843" x="-.62439" y="-.18301" width="2.2488" height="1.366" color-interpolation-filters="sRGB"><feGaussianBlur stdDeviation="2.8503839"/></filter><filter id="filter17847" x="-.299" y="-.42458" width="1.598" height="1.8492" color-interpolation-filters="sRGB"><feGaussianBlur stdDeviation="2.8503839"/></filter><filter id="filter17851" x="-.25889" y="-.36602" width="1.5178" height="1.732" color-interpolation-filters="sRGB"><feGaussianBlur stdDeviation="2.8503839"/></filter><filter id="filter17855" x="-.96496" y="-.70764" width="2.9299" height="2.4153" color-interpolation-filters="sRGB"><feGaussianBlur stdDeviation="2.8503839"/></filter><filter id="filter17859" x="-1.1794" y="-.70764" width="3.3588" height="2.4153" color-interpolation-filters="sRGB"><feGaussianBlur stdDeviation="2.8503839"/></filter><filter id="filter17863" x="-.70764" y="-.75818" width="2.4153" height="2.5164" color-interpolation-filters="sRGB"><feGaussianBlur stdDeviation="2.8503839"/></filter><filter id="filter17867" x="-.8165" y="-.66341" width="2.633" height="2.3268" color-interpolation-filters="sRGB"><feGaussianBlur stdDeviation="2.8503839"/></filter><filter id="filter17871" x="-.48248" y="-.20813" width="1.965" height="1.4163" color-interpolation-filters="sRGB"><feGaussianBlur stdDeviation="2.8503839"/></filter><linearGradient id="linearGradient19477" x1="4.5114" x2="401.51" y1="170.79" y2="170.79" gradientUnits="userSpaceOnUse"><stop stop-color="#5caec5" offset="0"/><stop stop-color="#5363a1" offset="1"/></linearGradient><linearGradient id="linearGradient19485" x1="30.935" x2="105.7" y1="159.51" y2="142.11" gradientUnits="userSpaceOnUse"><stop stop-color="#ff5858" offset=".086817"/><stop stop-color="#ca6a99" stop-opacity=".056604" offset=".50482"/><stop stop-color="#f25f5f" stop-opacity=".99371" offset=".83923"/></linearGradient><linearGradient id="linearGradient23319" x1="131.47" x2="402.16" y1="172.72" y2="172.72" gradientUnits="userSpaceOnUse"><stop stop-color="#1a2837" offset="0"/><stop stop-color="#0a0a0a" offset="1"/></linearGradient><linearGradient id="linearGradient23327" x1="103.81" x2="102.52" y1="34.85" y2="119.28" gradientUnits="userSpaceOnUse"><stop stop-color="#041a26" offset="0"/><stop stop-color="#061e26" stop-opacity=".97255" offset=".21222"/><stop stop-color="#101a1d" stop-opacity=".5283" offset="1"/></linearGradient><linearGradient id="linearGradient24696" x1="166.97" x2="141.83" y1="130.23" y2="103.17" gradientUnits="userSpaceOnUse"><stop stop-color="#60b1c1" offset="0"/><stop stop-color="#999" stop-opacity="0" offset="1"/></linearGradient><linearGradient id="linearGradient24704" x1="101.51" x2="104.41" y1="173.04" y2="126" gradientUnits="userSpaceOnUse"><stop stop-color="#ccc" stop-opacity=".33333" offset="0"/><stop stop-color="#999" stop-opacity="0" offset="1"/></linearGradient><linearGradient id="linearGradient24712" x1="345.23" x2="94.737" y1="211.65" y2="197.98" gradientTransform="translate(388.73 288.93)" gradientUnits="userSpaceOnUse"><stop stop-color="#1e202f" stop-opacity=".25786" offset="0"/><stop stop-color="#26344e" stop-opacity=".30818" offset=".57816"/><stop stop-color="#08181e" stop-opacity=".39623" offset="1"/></linearGradient><filter id="filter35185" x="-.14068" y="-.043807" width="1.2814" height="1.0876" color-interpolation-filters="sRGB"><feGaussianBlur stdDeviation="6.6355553"/></filter><linearGradient id="linearGradient85539" x1="2.6807" x2="90.201" y1="161.79" y2="131.63" gradientUnits="userSpaceOnUse"><stop stop-color="#ff5858" offset=".46966"/><stop stop-color="#ca6a99" stop-opacity=".056604" offset=".80021"/><stop stop-color="#f25f5f" stop-opacity=".99371" offset=".92886"/></linearGradient></defs><g transform="translate(21.864 21.864)" display="none"><rect x="-22.786" y="-20.963" width="423.31" height="395.05" fill="#333"/></g><g transform="translate(21.864 21.864)"><g><path d="m401.39 123.1-23.718 0.64449-10.312 87.005-31.58 54.137-132.83 90.228-70.829 8.3783-23.201-16.757-30.291-58.648-17.401-27.713-17.401-53.492-24.49-47.692-1.289-56.715-13.534-48.981v-75.405l397 1.289z" fill="url(#linearGradient19477)"/><path d="m128.25 30.291 92.161-27.713 34.158 3.8669 24.49 18.046-1.289 30.291-19.979 17.401-12.89 12.89-54.137 19.335-30.935-9.0228-3.2224-13.534-13.534-3.2224-9.0228-8.3783 1.289 19.979-11.601-1.289-0.64448-21.268-10.312-3.2224-3.2224-15.468 7.7338-9.0228-1.9334-60.582 5.1559-0.64448 1.9334 49.625z"/><path d="m257.15 41.892-2.5779 17.401-49.625 3.2224-32.869-3.2224-1.9334-12.89 45.114-19.979 15.468 1.289z" fill="#3e677c"/><path d="m263.59 30.935-18.046-15.468-34.158-1.9335-26.424 18.69 33.513-10.956 27.068 3.2224z" fill="#346273"/><path d="m75.405-16.112 10.956-3.2224 2.5779 33.513-13.534 2.5779z" fill="#26475a"/><path d="m61.871-17.401 5.1559 75.405 12.245 25.779-1.289 9.0228h-7.0893l0.64448 9.6673-10.312 15.468-27.068-1.9334-17.401-11.601v-13.534l16.112-0.64448-5.1559-5.8004 1.289-16.112-23.201-11.601 24.49-4.5114-25.779-7.7338 1.289-7.0893 20.624-3.2224 32.869 6.4448-3.2224-61.226z" fill="#1a1a1a"/><path d="m154.03 196.57-12.89 3.8669-34.802-9.0228-11.601 4.5114-16.112-1.289-1.9335 5.1559 5.8004 9.0228 10.956 6.4448-1.289 28.357 12.245-8.3783 12.245 7.0893-2.5779-14.823 4.5114-10.312 5.8004-2.5779 11.601 0.64448 10.956-3.2224z" fill="#141c20"/></g><path d="m220.41 261.02-5.8004-8.3783-8.3783 1.9334-1.289-5.1559-23.846 9.0228-58.648-11.601-18.69 5.8004-3.8669-5.1559-12.89 2.578-0.64449 4.5114-13.534 5.8004 4.5114 10.312 18.69 1.9335 6.4448 18.69-12.245-2.5779 18.046 19.979 5.8004 8.3783 6.4448 5.8004 10.956 4.5114 8.3783-8.3783 34.802-12.245 3.8669-7.7338 10.312-7.0893-12.89-5.8004 7.0893-4.5114-3.8669-4.5114-32.869 7.0894-19.979-6.4448 27.713-8.3783z" fill="#1a1a1a"/><path d="m126.96 359.62-4.5114-18.69 5.1559-14.179 21.912 17.401h39.314l7.7338 3.2224 44.469-26.424 50.27-33.513 18.046-21.268-12.245-9.0228 9.6673-7.0893 9.6673 12.245 37.38-38.669 7.7338-25.135-17.401 27.713-16.757 19.979-2.578-5.8004 27.713-35.447 6.4448-8.3783-1.9334-3.8669-34.802 46.403-2.5779-1.289-10.312 12.245-2.5779-2.578 10.956-12.89-18.046-28.357-14.179 8.3783 3.2224 17.401-3.8669 1.9335-1.289-17.401-22.557 12.89 5.8004 10.312 36.736-8.3783 5.8004-2.5779 1.289 5.1559h-5.8004l-73.471 18.69 2.5779 5.8004-5.8004 3.8669-1.289-10.956 12.245-5.1559-12.89-6.4448 0.64449-10.956-9.6673-0.64449-5.8004-19.335 19.979-18.69 6.4448-0.64449-0.64448-9.0228 9.6673-10.956 0.64449-6.4448 33.513-12.245-3.8669-32.869h3.2224l2.5779 31.58 16.112-7.0893-3.2224-20.624 13.534-9.0228v-14.179l10.956-11.601 3.2224-30.291-5.1558-25.135 32.224-30.291-7.0893-21.912 58.004 0.64448-0.64448 30.291-18.69 21.268 1.289 12.245 2.5779 9.0228-6.4448 9.6673-4.5114 3.8669 6.4448 41.247-4.5114 16.112-10.312 87.005-30.935 54.781-132.12 88.939-71.538 9.0228z" fill="#0b181c"/><path d="m398.94 65.093-10.312-4.5114 0.64447-14.179h10.956z" fill="#1a1a1a"/><g fill="#26475a"><path d="m121.16 129.54-11.601-0.64448 3.2224-11.601 9.0228-1.9335z"/><path d="m110.85 110.21 6.4448-0.64448-0.64448-21.912-6.4448-3.2224z"/><path d="m92.806 130.19 3.2224-33.513h-4.5114l-3.8669 34.158-3.2224 9.0228 3.2224 5.8004 9.0228-5.1559z"/></g><path d="m201.08 202.37-13.534 3.8669 1.9335-9.0228 7.7338-1.9334z" fill="#1a1a1a"/><g><path d="m231.37 163.7-11.601 1.289 3.8669-22.557-3.2224-26.424 5.1559-3.2224 2.5779 30.935z" fill="#253543"/><path d="m221.06-19.979-0.64448 10.956-6.4448-1.289 0.64448-10.956z" fill="#24424b"/><path d="m394.42 123.1-14.179 121.81 1.289 53.492 20.624 48.336-1.9335 29.646h-305.49l17.401-28.357 21.912 15.468 68.96-9.6673 132.76-88.939 31.58-55.426 9.6673-87.005z" fill="#10161c"/></g><g fill="#2e6373"><path d="m339 301.62 15.468-5.1559 6.4448 37.38-17.401 5.8004z"/><path d="m311.29 333.2h21.268l0.6445 5.1559-6.4449 4.5114-4.5114 7.0893-9.0228-0.64447z"/><path d="m319.02 373.8-2.5779-9.0228 23.201-3.2224 7.7338 14.179z"/></g><path d="m334.49 192.06 21.912-18.046-13.534-37.38-16.757 18.046z" fill="#345c68"/><path d="m324.18 146.94 16.112-14.823-3.2224-7.7338-15.468 12.245z" fill="#345c68"/><path d="m96.028 253.93 10.956 7.7338-4.5114 2.5779z" fill="none"/><path d="m150.16 197.21 2.578-18.046-5.1559-7.0893-23.846-3.2224 24.49-5.8004 27.713 18.69-9.6673 9.6673z" fill="#6c99b6"/><g fill="#4d4d4d"><path d="m260.68 225.59 21.875-11.849-1.8229-3.4179-22.786 12.988z"/><path d="m302.61 205.77 2.0507 4.7851 27.115-17.317-1.595-2.9622z"/><path d="m306.94 212.38 8.8865-5.9244 0.91147 3.4179-8.6587 5.9244z"/><path d="m325.62 200.75 6.6079-4.5572 0.68357 2.7343-6.6079 4.7851z"/><path d="m310.58 217.84 23.242-15.95 0.68357 2.9622-23.242 16.178z"/><path d="m249.97 164.75 30.989-11.621 0.22788 3.4179-31.673 11.849z"/><path d="m325.39 189.36 3.8736-1.595-12.077-54.231 19.14-13.444 0.68357-4.785-31.445 20.963 1.1393 8.203 8.8865-5.2408 3.1901 15.722-10.254 7.7472 4.785 29.394h5.9244l2.5064-1.1393-0.91144-4.5572 3.4179-2.5065z"/><path d="m345.9 105.05 11.849 3.4179 3.1901-10.026-13.899-3.19z"/><path d="m348.64 91.382 12.76 3.19 6.1522-22.102-16.406-5.4686z"/><path d="m351.6 64.495 16.862 5.9244-6.1522-12.76z"/><path d="m306.94 164.53 1.3672 7.7472-6.8358 4.3293-3.4179-7.9751z"/><circle cx="250.2" cy="230.6" r="6.3801"/><ellipse cx="331.32" cy="102.32" rx="7.9751" ry="8.203"/></g></g><g transform="translate(21.864 21.864)" opacity=".61028" style="mix-blend-mode:normal"><path d="m239.1-0.64438-61.871 7.7339-55.426 15.467-36.091 14.823-17.401-2.5781-7.089-24.49-0.64492 22.557-10.956-3.8669-7.0895-15.468-9.0227 22.557-29.002-1.2893v11.601l15.468 7.0895-3.2225 5.1558 8.3783 12.89 1.2888 13.534-10.956 3.8669 1.2888 15.468 21.268 15.468-3.8669 34.802 10.312 7.7339 14.823-24.49 12.245-18.045 5.8002-14.823 5.8007-7.0895-5.8007-28.357 2.5781-14.179 9.6671 33.513 3.2225 10.312 9.0227-23.846 19.335 2.5781 14.823 9.6671 15.467 4.5114c7.0893 4.5114 38.025 22.557 38.025 22.557l44.47-17.401 29.646-16.757 1.9337-12.245 24.49-19.334v-14.179l-14.178-12.245zm-19.334 18.69 21.268 1.9337 9.6671 6.4446-12.89-2.5776-21.268-2.5781-11.601 0.6444zm10.956 15.468 14.823 8.3783-27.069 10.956-27.713-0.64492-3.867-8.3783 20.624-8.3783z" fill="url(#linearGradient23327)" opacity="1"/><path d="m158.54 191.41 14.179 0.64448 4.5114-7.7338-21.912-19.979h-27.068l-7.7338 7.0893 3.2224 12.89 1.9335-10.956 6.4448-4.5114 15.468 4.5114 5.8004 15.468-5.8004 6.4448-29.646-9.6673-9.0228-5.1559-12.89 7.0893-10.956-2.5779-12.245 7.0893 2.5779 10.956 6.4448 22.557 10.956-7.0893-1.9335 27.068 13.534 7.0894 19.979-4.5114-3.2224-10.956 3.8669-16.112 20.624-6.4448z" fill="#1a1a1a" opacity="1"/><path d="m401.51-21.268-100.22-0.96693 14.501 50.592-7.0895 71.538-45.114 23.201-25.779 18.046-1.9337 41.892-52.203 12.89 14.178 15.468 10.312 41.247-32.869 16.112-29.485 16.596 32.064 2.0946-3.867 16.112-47.048 18.368 7.0895 24.813 24.49 19.979 48.981-10.956 104.41-74.116 53.492-65.737 10.956-65.093 13.212-34.48-3.8669-42.214 7.4114-56.07 9.0227-10.312zm-197.86 320.95 27.713 7.0895v7.7334l-10.956 8.3783-45.758 14.823-21.268-3.8669 1.2888-9.0227z" fill="url(#linearGradient23319)" opacity="1"/><path d="m88.145 287.1 14.107 3.6324 26.385 34.125-2.3177 16.718 1.4844 18.313-20.175-14.172 2.5779-6.074 5.7222-5.9568-7.6556-17.889z" fill="#1a1a1a" opacity="1"/><path d="m70.893 199.79-5.8004 12.89-4.5114-34.158 0.64449-24.49 3.2224 28.357z" fill="#20363b" opacity="1"/><path d="m74.116 185.61-2.5779-9.6673 5.1559-16.112 5.8004-8.3783-12.245 10.956-1.9335 16.112z" fill="#20363b" opacity="1"/><path d="m170.79 265.53-52.848-2.5779-9.6673 3.2224-7.0893-3.2224-23.846 4.5114 30.935 5.1559z" opacity="1"/><g fill="#1a1a1a"><path d="m400.87 339.64-19.979-42.536v-65.737l16.757-110.85-19.335-7.0893-10.956 99.251-62.515 72.827 14.823 41.247 3.8669 48.981 76.694 0.64448z" opacity="1"/><g><path d="m231.74 185.66 2.9002-41.892-8.0561 44.469z" opacity="1"/><path d="m315.2 31.628-10.634 66.382-42.214 24.813 38.025-27.713z" opacity="1"/><path d="m183.73 256.23-2.2557-21.912-1.289 26.424z" opacity="1"/><path d="m177.6 179.22-19.012-16.757 19.657 11.278z" opacity="1"/><path d="m126.04 162.14-5.1559 4.8336v-7.7338z" opacity="1"/><path d="m109.61 130.88 11.278 0.96672-0.96673 2.2557-10.634-0.32224z" opacity="1"/><path d="m155.69 331.31 19.335 1.289 44.147-16.434 10.956-8.0561-9.9895 11.278-46.081 15.468z" opacity="1"/><path d="m268.48 69.653 21.912-18.046-20.946 19.979z" opacity="1"/><path d="m298.77-20.898 12.567 42.536-17.401-43.503z" opacity="1"/><path d="m192.43 116.06 45.114-18.046 9.6673-5.8004-10.956 9.345z" opacity="1"/><path d="m127.98 222.07 17.401-5.4781-17.723 10.634-2.9002 6.1226z" opacity="1"/><path d="m188.56 190.49 35.447-7.4116-0.96673-2.5779z" opacity="1"/><path d="m79.32 152.15 5.1559-3.2224 0.64449-3.5447z" opacity="1"/><path d="m111.22 81.253 4.1892 3.2224v-4.8336z" opacity="1"/><path d="m139.9 12.616 37.058-11.278 58.004-4.8336-60.582 0.64449z" opacity="1"/><path d="m114.77 19.705-30.613 12.245-17.079-4.1892 16.434 0.96673z" opacity="1"/><path d="m57.73 27.439-8.0561-2.9002 8.0561-0.64448z" opacity="1"/><path d="m172.13 165.04 5.4781 2.9002 1.289-6.1226z" opacity="1"/><path d="m156.98 193.72 13.856 0.32225-1.289 2.5779-15.468-0.32225z" opacity="1"/><path d="m387.71 73.842 4.8336 39.636 5.4781 0.32225-2.9002-3.5447-8.7006-38.669" opacity="1"/><path d="m383.52 31.306 20.624-10.956-2.5779-11.601z" opacity="1"/><path d="m123.79 91.565 10.956 0.32224-0.32224 4.5114-10.312-0.96673z" opacity="1"/></g></g></g><g transform="translate(21.864 21.864)" fill="#0ff" style="mix-blend-mode:normal"><path d="m105.31 341.96 15.302 11.76 0.78745-26.235-13.329-13.902-10.059-13.776-9.283-11.366 14.473 2.8382-6.6909-18.824-13.118-1.1717-3.6391-0.76177-2.2557-0.64449-1.4501-5.317-0.48336-4.6725 12.084-5.317-23.124-4.622 27.18-8.8407 1.1002-21.952-10.956 5.768-5.7336-21.434-2.6447-11.274-5.4619-13.012 2.2395-18.729 16.568-29.621 4.1663-34.027-9.9409-32.134-1.8095 5.749 6.0349 27.641-12.636 20.969-28.696 33.194-2.9097-1.7771-0.80087-32.088-11.49-5.4876-10.045-9.1334-2.5779-12.89 10.956-3.2224 1.2957-7.0569-3.8736-14.211-12.89-8.3783 15.468-3.8669-20.624-6.4448 0.64448-10.312 26.072-3.2615-13.971-19.691-14.679-35.696-0.64448 74.76 3.8669 9.6673 4.5114 25.779 3.2224 3.2224 3.2224 21.268 0.14967 44.782 14.264 28.396 10.155 19.666 10.8 31.202 7.1217 22.159 17.714 29.172 16.184 31.359z" fill="url(#linearGradient85539)" style="mix-blend-mode:normal"/><path d="m397.65 121.81-10.312 72.182-5.1559 41.892-1.289 61.871 21.268 46.403-1.9335 19.335-27.068-62.515 1.289-81.205z" fill="#0ff"/><path d="m375.73 120.52-10.956 101.83-59.937 68.96-76.694 50.27 75.405-57.359 57.359-65.093z" fill="#0ff"/><g><path d="m108.27 173.37-9.0228 5.8004-3.8669-8.3783c6.0739-25.018 6.6399-30.759 9.6673-45.114l0.64449 41.247z" fill="url(#linearGradient24704)" style="mix-blend-mode:normal"/><path d="m132.76 108.92 15.468 30.935 31.58 12.89-2.578-21.912-25.779-25.779-17.401 0.64449z" fill="url(#linearGradient24696)" style="mix-blend-mode:normal"/><path d="m127.61 244.26 4.5114-4.5114 40.603 15.468z" fill="#6ec2c4"/><path d="m167.57 268.75-19.335 9.6673-2.5779-3.8669z" fill="#6ec2c4"/><path d="m62.743-16.535 5.4161 50.732-3.1375-10.728z" fill="#ff6565"/><path d="m241.68 117.3 32.869-18.046 8.3783-34.158-22.557 27.713z" fill="#52a5bd" style="mix-blend-mode:normal"/><path d="m105.31 341.96 11.757-5.319-1.7905-8.1896-7.2066-14.869-11.509-12.648-10.572-16.522 13.345 4.1272-5.2408-14.634-10.54-1.1717-1.0611 3.1051-5.1559-1.289-7.7338-9.6673 5.8004-7.0893 13.534-3.2224-24.413-4.622 27.18-8.8407 1.1002-21.952-10.956 5.768-6.8615-21.112-3.4503-13.691-3.5285-10.917 2.2395-18.729 16.568-29.621 4.1663-34.027-9.9409-32.134-1.8095 5.749 6.0349 27.641-12.636 20.969-28.696 33.194-2.9097-1.7771-0.80087-32.088-11.49-5.4876-10.045-9.1334-2.5779-12.89 10.956-3.2224 1.2957-7.0569-3.8736-14.211-12.89-8.3783 15.468-3.8669-20.624-6.4448 0.64448-10.312 26.072-3.2615 1.0678-55.693-29.718 0.30605-0.64448 74.76 3.8669 9.6673 4.5114 25.779 3.2224 3.2224 3.2224 21.268 0.14967 44.782 14.264 28.396 10.155 19.666 10.8 31.202 7.1217 22.159 17.714 29.172 16.184 31.359z" display="none" fill="url(#linearGradient19485)" filter="url(#filter35185)" style="mix-blend-mode:screen"/></g><g fill="#f00"><path d="m122.5 20.349-1.289-40.603 7.4116 34.158 3.8669 4.1892z"/><path d="m95.432 97.688-2.9002 31.902 3.5447 10.956-8.7005 4.5114 12.567-5.1559-5.4781-10.634z"/><path d="m86.731-19.286 4.5114 31.58-3.2224 1.6112z"/></g></g><g transform="translate(21.864 21.864)" stroke="#1a1a1a"><g fill="none" stroke-width=".79375"><path d="m251.99 86.361-4.5114 16.112" stroke="#4d4d4d"/><path d="m261.66-9.6673-0.64449 16.112" stroke="#4d4d4d"/><path d="m116.01-3.8669-22.557 9.0228" stroke="#1a1a1a"/><path d="m317.73 239.1-48.336 40.603-30.291 28.357-16.757 16.757" stroke="#1a1a1a"/></g><g fill="#1a1a1a" stroke="none"><path d="m300.33 265.53 3.8669 12.89-12.245-14.823 7.0893-2.5779z"/><path d="m255.86 292.6 5.8004 13.534-5.1559 1.9335-7.0893-10.312z"/><path d="m280.35 277.13 6.4448 9.6673-21.912 13.534-4.5114-6.4448z"/><path d="m370.58 74.116-2.5779 25.135 3.8669 12.245-10.956 27.068-1.9335 6.4448-10.312-19.979-4.5114 0.64449 11.601 47.692-17.401-54.781 7.0893-8.3783 14.179 3.2224z"/><path d="m94.739 243.62-27.713 5.1559 25.135-0.64449z"/></g></g><g transform="translate(21.864 21.864)"><path d="m502 482.11-2.4168-33.997 11.601-28.357 9.0228-2.5779 10.312 16.757 23.846 15.468s27.068 5.1559 30.291 4.5114c3.2224-0.64449 22.235-19.173 22.235-19.173l-45.436-26.585-12.406-22.718 28.68 16.273 79.594 5.6392 22.074-48.175 2.5779-41.247 15.468-12.245-10.956-36.736 105.05-1.9335-1.289 147.59-20.624 3.2224-10.312 87.005-57.359 69.604-106.34 74.116-57.359 9.0228-27.068-14.823-11.601-10.312 8.3783-8.3783-3.8669-13.534-23.201-30.291 9.6673-3.8669-5.1559-18.69-22.557-3.8669 10.312-11.601-7.7338-9.0228-1.289-25.779-9.9895-7.4116 8.7005-14.823 31.58-4.1892 40.603 4.5114 12.89-5.8004-12.89 33.513-20.462 20.785 48.981 11.44-1.4501-13.534 21.268-16.757-32.224-34.158-20.785 8.5394z" fill="url(#linearGradient24712)"/><path d="m98.427 169.91 3.2155-8.0837 2.4905 9.7768-3.5695 2.2048z" fill="#ccc"/><path d="m81.898 254.78-9.345 4.3503 9.8284-7.0894z" fill="#0ff"/><path d="m99.621 256.55 4.5114 4.5114-3.8669-0.32224z" fill="#800080"/><path d="m85.281 274.44 7.2505 1.1278 2.0946 8.2172z" fill="#0ff"/></g><g fill="none" stroke="#1a1a1a" stroke-width="5.2917"><path d="m117.12 396.93 16.406-24.153-3.6458-6.8358-23.697-46.028-13.216-22.33-10.482-16.862-17.317-53.775-25.52-47.851v-52.408l-2.7343-13.672-3.6458-2.7343-5.0129-28.71-2.2786-5.0129 0.91144-78.384"/><path d="m424.73 368.22-21.419-48.762-0.45572-61.978 17.773-115.75 7.2915-0.91144"/></g><g transform="translate(21.864 21.864)"><g fill="#f00"><path d="m339 266.17 12.89-10.312 1.289 27.068-14.179 5.8004z"/><path d="m344.8 306.13 7.0893-2.5779v7.0894l-8.3783 3.2224z"/><path d="m344.15 320.95 8.3783-1.9335-0.64447 6.4449-9.0228 2.5779z"/></g><path d="m310.64 311.93h5.8004l-0.64447 9.0228-5.1559 0.64447z" fill="#0ff"/><path d="m344.15 355.11 7.0893 0.6445v8.3783l-7.0893 0.6445z" fill="#0ff"/><g fill="#f00"><path d="m291.31 171.43-23.201 12.89 3.2224 5.8004 22.879-12.648z"/><path d="m273.26 193.35 22.074-12.729-1.3695 5.7198-18.771 10.876z"/><path d="m368 13.534-3.2224 36.091-7.7338 1.289 3.2224-36.736z"/><path d="m360.91 9.6673 7.4921-0.72504 0.64448-7.331-7.4921 0.64448z"/><path d="m339 266.17 12.89-10.312 1.289 27.068-14.179 5.8004z" filter="url(#filter17871)" style="mix-blend-mode:normal"/><path d="m344.8 306.13 7.0893-2.5779v7.0894l-8.3783 3.2224z" filter="url(#filter17867)" style="mix-blend-mode:normal"/><path d="m344.15 320.95 8.3783-1.9335-0.64447 6.4449-9.0228 2.5779z" filter="url(#filter17863)" style="mix-blend-mode:normal"/></g><path d="m310.64 311.93h5.8004l-0.64447 9.0228-5.1559 0.64447z" fill="#0ff" filter="url(#filter17859)" style="mix-blend-mode:normal"/><path d="m344.15 355.11 7.0893 0.6445v8.3783l-7.0893 0.6445z" fill="#0ff" filter="url(#filter17855)" style="mix-blend-mode:normal"/><g fill="#f00"><path d="m291.31 171.43-23.201 12.89 3.2224 5.8004 23.201-13.534z" filter="url(#filter17851)" style="mix-blend-mode:normal"/><path d="m273.58 193.35 22.235-12.245 0.6445 4.5114-21.268 11.601z" filter="url(#filter17847)" style="mix-blend-mode:normal"/><path d="m368 13.534-3.2224 36.091-7.7338 1.289 3.2224-36.736z" filter="url(#filter17843)" style="mix-blend-mode:normal"/><path d="m360.91 9.6673 7.7338-1.9335v-9.0228l-6.4448 1.9335z" filter="url(#filter17839)" style="mix-blend-mode:normal"/></g></g><g transform="translate(21.864 21.864)" display="none" style="mix-blend-mode:normal"><image x="3.8669" y="-21.912" width="396.88" height="396.88" preserveAspectRatio="none" xlink:href="file:///Users/poppijanne/Pictures/Levyt/OUTRON/blue_cyborg_girl.png"/></g></svg>
