<?xml version="1.0" encoding="UTF-8" standalone="no"?>
<!-- Created with Inkscape (http://www.inkscape.org/) -->

<svg
   xmlns:dc="http://purl.org/dc/elements/1.1/"
   xmlns:cc="http://creativecommons.org/ns#"
   xmlns:rdf="http://www.w3.org/1999/02/22-rdf-syntax-ns#"
   xmlns:svg="http://www.w3.org/2000/svg"
   xmlns="http://www.w3.org/2000/svg"
   xmlns:xlink="http://www.w3.org/1999/xlink"
   xmlns:sodipodi="http://sodipodi.sourceforge.net/DTD/sodipodi-0.dtd"
   xmlns:inkscape="http://www.inkscape.org/namespaces/inkscape"
   width="5500"
   height="5500"
   viewBox="0 0 5500.0001 5500"
   id="svg2"
   version="1.1"
   inkscape:version="0.91 r13725"
   sodipodi:docname="hahmo_large.svg">
  <defs
     id="defs4" />
  <sodipodi:namedview
     id="base"
     pagecolor="#ffffff"
     bordercolor="#bcbcbc"
     borderopacity="1"
     inkscape:pageopacity="0.0"
     inkscape:pageshadow="2"
     inkscape:zoom="0.087500001"
     inkscape:cx="854.48338"
     inkscape:cy="2503.1144"
     inkscape:document-units="px"
     inkscape:current-layer="layer7"
     showgrid="false"
     inkscape:showpageshadow="false"
     showborder="false"
     inkscape:window-width="1881"
     inkscape:window-height="1107"
     inkscape:window-x="257"
     inkscape:window-y="115"
     inkscape:window-maximized="0"
     units="px" />
  <metadata
     id="metadata7">
    <rdf:RDF>
      <cc:Work
         rdf:about="">
        <dc:format>image/svg+xml</dc:format>
        <dc:type
           rdf:resource="http://purl.org/dc/dcmitype/StillImage" />
        <dc:title></dc:title>
      </cc:Work>
    </rdf:RDF>
  </metadata>
  <g
     inkscape:groupmode="layer"
     id="layer11"
     inkscape:label="shadow"
     style="display:inline">
    <path
       transform="translate(0,4447.6378)"
       style="display:inline;opacity:0.33300003;fill:#000000;fill-opacity:1;stroke:#000000;stroke-width:75.61511993;stroke-linecap:round;stroke-miterlimit:4;stroke-dasharray:none;stroke-opacity:1"
       d="m 1276.1435,853.58453 c 698.6877,96.16306 1405.3191,18.66172 2131.2986,40.36449 373.4318,11.16353 1581.2221,-47.04981 1209.3021,-133.18735 -648.4985,-150.19384 -2197.303,-64.82172 -3005.6825,-64.09818 -456.8198,0.40832 -1076.53886,44.04619 -334.9182,156.92104 z"
       id="path4348"
       inkscape:connector-curvature="0"
       sodipodi:nodetypes="csssc"
       inkscape:export-xdpi="90.019997"
       inkscape:export-ydpi="90.019997" />
  </g>
  <g
     inkscape:groupmode="layer"
     id="layer2"
     inkscape:label="Layer 2"
     transform="translate(0,4447.6378)"
     style="display:inline">
    <path
       sodipodi:nodetypes="cccscc"
       inkscape:connector-curvature="0"
       id="path4342"
       d="m 677.53325,-1683.2559 c -97.3453,-167.0661 -111.41964,-371.8064 -116.17526,-561.4617 4.53974,-245.9075 185.51414,-524.2275 458.41431,-499.8376 242.3843,21.0466 340.9634,205.9827 372.2065,419.6344 28.6114,195.6556 28.958,437.4471 -56.1396,646.5657 -131.6162,232.4719 -539.14228,194.6988 -658.30595,-4.9008 z"
       style="opacity:1;fill:#00aad4;fill-opacity:1;stroke:#004455;stroke-width:76.91500092;stroke-linecap:round;stroke-miterlimit:4;stroke-dasharray:none;stroke-opacity:1"
       inkscape:export-xdpi="90.019997"
       inkscape:export-ydpi="90.019997" />
    <path
       style="opacity:1;fill:none;fill-opacity:1;stroke:#004455;stroke-width:75.61511993;stroke-linecap:butt;stroke-miterlimit:4;stroke-dasharray:none;stroke-opacity:1"
       d="m 2881.5026,-3146.1911 c -18.5931,-219.9431 -138.2182,-397.0803 -273.4296,-523.2297"
       id="path4245"
       inkscape:connector-curvature="0"
       sodipodi:nodetypes="cc"
       inkscape:export-xdpi="90.019997"
       inkscape:export-ydpi="90.019997" />
    <path
       style="opacity:1;fill:#aaeeff;fill-opacity:1;stroke:#004455;stroke-width:75.61511993;stroke-linecap:butt;stroke-miterlimit:4;stroke-dasharray:none;stroke-opacity:1"
       d="m 2447.4357,-3898.1758 c 57.8726,-0.2353 107.456,23.0132 155.827,49.7147 59.8128,45.0589 38.9312,158.1687 -39.506,169.5802 -68.8518,21.7107 -136.1773,-17.6612 -206.3908,-18.5346 -39.662,-10.8357 -67.1003,-39.8204 -63.6896,-82.6486 -9.7106,-80.526 90.6086,-115.6584 153.7594,-118.1117 z"
       id="path4249"
       inkscape:connector-curvature="0"
       inkscape:export-xdpi="90.019997"
       inkscape:export-ydpi="90.019997" />
    <path
       style="opacity:1;fill:#aaeeff;fill-opacity:1;stroke:#004455;stroke-width:80.21499634;stroke-linecap:round;stroke-miterlimit:4;stroke-dasharray:none;stroke-opacity:1"
       d="m 2016.4713,374.70602 c -57.4587,86.95323 -82.7245,367.95462 -134.8866,384.62114 -68.9879,-13.2438 -121.4162,-66.74783 -159.0092,-123.33781 -60.5625,-67.35663 -71.5108,-173.03538 -109.2079,-252.55451"
       id="path4296"
       inkscape:connector-curvature="0"
       sodipodi:nodetypes="cccc"
       inkscape:export-xdpi="90.019997"
       inkscape:export-ydpi="90.019997" />
    <path
       sodipodi:nodetypes="cccc"
       inkscape:connector-curvature="0"
       id="path4303"
       d="m 3568.1704,400.89239 c 57.4587,86.95323 81.531,363.18066 133.6932,379.84718 68.9879,-13.2438 121.4162,-66.74783 159.0091,-123.33781 60.5625,-67.35663 91.8,-235.0964 129.497,-314.61553"
       style="opacity:1;fill:#aaeeff;fill-opacity:1;stroke:#004455;stroke-width:80.21499634;stroke-linecap:round;stroke-miterlimit:4;stroke-dasharray:none;stroke-opacity:1"
       inkscape:export-xdpi="90.019997"
       inkscape:export-ydpi="90.019997" />
    <path
       style="opacity:1;fill:#aaeeff;fill-opacity:1;stroke:#004455;stroke-width:94.51890564;stroke-linecap:butt;stroke-miterlimit:4;stroke-dasharray:none;stroke-opacity:1"
       d="m 4684.9428,-1650.121 c -11.0731,-366.6988 15.7867,-607.7555 -24.2164,-744.1396 -44.4329,-264.767 -54.9876,-471.5486 -290.7642,-698.4554 -195.8222,-188.4554 -497.5881,-255.19 -757.1413,-300.7642 -284.7063,-40.6661 -583.444,-52.6869 -885.3847,-20.3036 -263.6055,28.2719 -370.9995,105.856 -720.8634,86.9201 -395.1954,0.7997 -685.0823,67.6901 -873.3385,360.8695 -117.8223,248.6096 -261.29948,490.5442 -260.45146,785.6354 0.98205,341.7169 8.96984,520.7114 8.3273,879.4454 -8.53099,254.3754 -22.97801,378.56431 -31.35031,642.15021 14.64032,395.82305 -4.44021,636.644171 245.77217,902.95061 213.6882,127.31129 385.3926,129.4046 623.713,126.06383 322.2541,-18.31389 559.1308,-23.86215 929.8072,5.30894 508.8094,85.09584 1452.5828,30.46278 1709.8163,-106.04123 208.7435,-142.49887 295.5586,-260.0598757 329.0702,-595.90293 31.477,-315.45211 45.1059,-514.79786 26.5096,-877.01243 0.1305,-181.3923 -24.194,-270.8332 -29.5055,-446.7246 z"
       id="path4238"
       inkscape:connector-curvature="0"
       sodipodi:nodetypes="scscsccsccccccscs"
       inkscape:export-xdpi="90.019997"
       inkscape:export-ydpi="90.019997" />
    <path
       style="opacity:1;fill:#00aad4;fill-opacity:1;stroke:#004455;stroke-width:78.71499634;stroke-linecap:round;stroke-miterlimit:4;stroke-dasharray:none;stroke-opacity:1"
       d="m 4329.5863,-1678.482 c -98.3139,-166.498 -116.0812,-371.7468 -116.1753,-561.4616 -0.1219,-245.9494 185.4854,-523.9038 458.4143,-499.8376 242.3559,21.3703 347.7148,192.48 378.9579,406.1317 28.6114,195.6556 36.5751,457.3897 -62.891,660.0683 -117.694,239.821 -540.1078,195.2721 -658.3059,-4.9008 z"
       id="path4324"
       inkscape:connector-curvature="0"
       sodipodi:nodetypes="ssssss"
       inkscape:export-xdpi="90.019997"
       inkscape:export-ydpi="90.019997" />
    <path
       sodipodi:nodetypes="cccscc"
       inkscape:connector-curvature="0"
       id="path4340"
       d="m 4596.8043,-1847.4762 c -50.5841,-107.7322 -57.8976,-239.7586 -60.3688,-362.0575 2.359,-158.573 96.3996,-338.0471 238.208,-322.3194 125.9511,13.5719 177.1763,132.8276 193.4112,270.6006 14.8675,126.168 15.0476,282.0869 -29.1721,416.9365 -68.3922,149.9091 -280.1568,125.5513 -342.0783,-3.1602 z"
       style="opacity:1;fill:#0088aa;fill-opacity:1;stroke:#004455;stroke-width:43.77099228;stroke-linecap:round;stroke-miterlimit:4;stroke-dasharray:none;stroke-opacity:1"
       inkscape:export-xdpi="90.019997"
       inkscape:export-ydpi="90.019997" />
    <path
       style="opacity:1;fill:#004455;fill-opacity:1;stroke:none;stroke-width:8;stroke-linecap:round;stroke-miterlimit:4;stroke-dasharray:none;stroke-opacity:1"
       d="m 3616.3414,534.03977 c 109.7887,-74.79937 201.7771,-69.38211 310.5948,13.26152 2.7246,-43.71527 12.4853,-147.06761 28.6435,-171.8761 -160.8982,7.29258 -239.7386,46.31473 -353.2705,75.62548"
       id="path4415"
       inkscape:connector-curvature="0"
       sodipodi:nodetypes="cccc"
       inkscape:export-xdpi="90.019997"
       inkscape:export-ydpi="90.019997" />
    <path
       style="opacity:1;fill:#004455;fill-opacity:1;stroke:none;stroke-width:8;stroke-linecap:round;stroke-miterlimit:4;stroke-dasharray:none;stroke-opacity:1"
       d="m 1671.4434,518.53196 c 55.4922,-59.2977 217.2898,-56.76777 275.4482,6.24742 24.981,-28.80497 38.8359,-88.75113 22.0582,-127.65649 -48.0555,2.66919 -353.5982,-87.30554 -342.9592,28.18479"
       id="path4417"
       inkscape:connector-curvature="0"
       sodipodi:nodetypes="cccc"
       inkscape:export-xdpi="90.019997"
       inkscape:export-ydpi="90.019997" />
    <path
       style="opacity:1;fill:#004455;fill-opacity:1;stroke:none;stroke-width:8;stroke-linecap:round;stroke-miterlimit:4;stroke-dasharray:none;stroke-opacity:1"
       d="m 4359.1634,-1625.5829 c 62.7175,86.0849 -15.1406,99.0487 158.8524,209.0692 34.8174,12.0092 144.9083,34.5907 178.656,13.5164 33.0521,-18.4559 -7.2474,-88.9307 -7.2474,-88.9307 -140.3781,-27.2251 -190.3471,-76.1183 -316.4912,-123.0109 71.6773,63.1926 -4.8835,-14.0704 -13.7698,-10.644 z"
       id="path4429"
       inkscape:connector-curvature="0"
       sodipodi:nodetypes="cccccc"
       inkscape:export-xdpi="90.019997"
       inkscape:export-ydpi="90.019997" />
    <path
       style="opacity:1;fill:#004455;fill-opacity:1;stroke:none;stroke-width:8;stroke-linecap:round;stroke-miterlimit:4;stroke-dasharray:none;stroke-opacity:1"
       d="m 4542.9595,-2203.2279 c 40.4186,-94.3278 98.261,-209.5689 199.5594,-225.2295 121.6765,-18.8111 117.1116,30.3206 216.9303,105.0614 -44.3928,-138.0953 -149.2628,-211.9687 -213.478,-209.6411 -72.0503,2.1835 -128.4954,95.2817 -154.149,163.0494 -20.5117,47.6831 -69.1285,214.0555 -48.8627,166.7598 z"
       id="path4445"
       inkscape:connector-curvature="0"
       sodipodi:nodetypes="sscccs"
       inkscape:export-xdpi="90.019997"
       inkscape:export-ydpi="90.019997" />
    <path
       style="opacity:1;fill:#006680;fill-opacity:1;stroke:#004455;stroke-width:70;stroke-linecap:round;stroke-miterlimit:4;stroke-dasharray:none;stroke-opacity:1"
       d="M 888.25556,-2735.7098 C 1109.7437,-3833.7813 2313.1364,-4340.1304 3449.6015,-4066.736 c 373.9878,106.8078 744.245,279.4215 982.8847,606.6555 132.0582,175.1948 264.5575,518.1169 326.3772,729.0582 -106.2685,-21.2239 -138.6234,-16.6936 -232.9236,-1.5754 -178.812,-753.4139 -585.2682,-1362.4203 -1769.4634,-1363.3405 -1183.9252,28.3925 -1548.4252,865.3829 -1756.69557,1360.2284 0,0 -48.75965,-21.5499 -111.52527,0 z"
       id="path4188"
       inkscape:connector-curvature="0"
       sodipodi:nodetypes="cccccccc"
       inkscape:export-xdpi="90.019997"
       inkscape:export-ydpi="90.019997" />
  </g>
  <g
     inkscape:groupmode="layer"
     id="layer5"
     inkscape:label="hands 1"
     style="display:inline"
     transform="translate(0,4755.9055)">
    <path
       style="display:inline;opacity:1;fill:none;fill-opacity:1;stroke:#004455;stroke-width:95.115;stroke-linecap:round;stroke-miterlimit:4;stroke-dasharray:none;stroke-opacity:1"
       d="m 881.05088,-1616.6255 c -308.83607,45.3179 -447.68298,260.8441 -516.99019,492.7466"
       id="path4286"
       inkscape:connector-curvature="0"
       sodipodi:nodetypes="cc"
       inkscape:export-xdpi="90.019997"
       inkscape:export-ydpi="90.019997" />
    <path
       style="display:inline;fill:none;fill-rule:evenodd;stroke:#004455;stroke-width:95.115;stroke-linecap:round;stroke-linejoin:miter;stroke-miterlimit:4;stroke-dasharray:none;stroke-opacity:1"
       d="m 5131.5107,-885.16296 c -36.0157,-606.53954 -607.5474,-755.17124 -612.839,-756.15124"
       id="path4294"
       inkscape:connector-curvature="0"
       sodipodi:nodetypes="cc"
       inkscape:export-xdpi="90.019997"
       inkscape:export-ydpi="90.019997" />
  </g>
  <g
     inkscape:groupmode="layer"
     id="layer7"
     inkscape:label="mouth 1"
     style="display:inline"
     transform="translate(0,4755.9055)">
    <path
       style="display:inline;opacity:1;fill:none;fill-opacity:1;stroke:#004455;stroke-width:52.22658157;stroke-linecap:round;stroke-miterlimit:4;stroke-dasharray:none;stroke-opacity:1"
       d="m 2422.9718,-1680.5658 c -353.5318,-8.9073 -766.2396,68.9435 -671.7033,56.5944 150.3782,-19.6437 418.3948,-21.2789 576.1525,-20.3065 277.3362,11.3048 782.0295,33.2526 588.3585,10.5828 -269.6468,-31.563 -222.6624,-40.0643 -492.8077,-46.8707 z"
       id="path4278"
       inkscape:connector-curvature="0"
       sodipodi:nodetypes="sscss"
       inkscape:export-xdpi="90.019997"
       inkscape:export-ydpi="90.019997" />
  </g>
  <g
     inkscape:groupmode="layer"
     id="layer3"
     inkscape:label="eyes 1"
     style="display:inline;opacity:1"
     transform="translate(0,4755.9055)">
    <path
       style="opacity:1;fill:#004455;fill-opacity:1;stroke:#004455;stroke-width:75.61511993;stroke-linecap:butt;stroke-miterlimit:4;stroke-dasharray:none;stroke-opacity:1"
       d="m 3057.8496,-2386.2794 c 73.0484,-6.1238 192.4249,-77.7758 155.5636,-147.1504 -20.0589,-57.7304 -85.5009,-91.869 -138.6468,-94.9283 -76.7181,5.3753 -252.1782,38.0567 -205.0093,140.7256 33.4732,74.421 116.1794,95.0084 188.0925,101.3531 z"
       id="path4262"
       inkscape:connector-curvature="0"
       sodipodi:nodetypes="ccccc"
       inkscape:export-xdpi="90.019997"
       inkscape:export-ydpi="90.019997" />
    <path
       style="opacity:1;fill:#004455;fill-opacity:1;stroke:#004455;stroke-width:75.61511993;stroke-linecap:butt;stroke-miterlimit:4;stroke-dasharray:none;stroke-opacity:1"
       d="m 1640.5778,-2423.4119 c 32.3381,-51.3707 40.3727,-117.915 -9.6806,-151.053 -30.7268,-20.3429 -100.8447,-24.4019 -130.1308,-4.8806 -31.9017,21.2649 -50.572,49.7849 -52.1219,85.8808 7.5326,90.5738 76.2759,101.1037 152.3362,93.2111 10.8504,-10.977 43.1204,-17.3654 48.1682,-34.3106"
       id="path4270"
       inkscape:connector-curvature="0"
       sodipodi:nodetypes="cssccc"
       inkscape:export-xdpi="90.019997"
       inkscape:export-ydpi="90.019997" />
  </g>

</svg>
